<?xml version="1.0" standalone="no"?>
<!DOCTYPE svg PUBLIC "-//W3C//DTD SVG 1.1//EN" "http://www.w3.org/Graphics/SVG/1.1/DTD/svg11.dtd" >
<!--
2013-9-30: Created.
-->
<svg>
<metadata>
Created by iconfont
</metadata>
<defs>

<font id="iconfont" horiz-adv-x="1024" >
  <font-face
    font-family="iconfont"
    font-weight="500"
    font-stretch="normal"
    units-per-em="1024"
    ascent="896"
    descent="-128"
  />
    <missing-glyph />
    
    <glyph glyph-name="x" unicode="x" horiz-adv-x="1001"
d="M281 543q-27 -1 -53 -1h-83q-18 0 -36.5 -6t-32.5 -18.5t-23 -32t-9 -45.5v-76h912v41q0 16 -0.5 30t-0.5 18q0 13 -5 29t-17 29.5t-31.5 22.5t-49.5 9h-133v-97h-438v97zM955 310v-52q0 -23 0.5 -52t0.5 -58t-10.5 -47.5t-26 -30t-33 -16t-31.5 -4.5q-14 -1 -29.5 -0.5
t-29.5 0.5h-32l-45 128h-439l-44 -128h-29h-34q-20 0 -45 1q-25 0 -41 9.5t-25.5 23t-13.5 29.5t-4 30v167h911zM163 247q-12 0 -21 -8.5t-9 -21.5t9 -21.5t21 -8.5q13 0 22 8.5t9 21.5t-9 21.5t-22 8.5zM316 123q-8 -26 -14 -48q-5 -19 -10.5 -37t-7.5 -25t-3 -15t1 -14.5
t9.5 -10.5t21.5 -4h37h67h81h80h64h36q23 0 34 12t2 38q-5 13 -9.5 30.5t-9.5 34.5q-5 19 -11 39h-368zM336 498v228q0 11 2.5 23t10 21.5t20.5 15.5t34 6h188q31 0 51.5 -14.5t20.5 -52.5v-227h-327z" />
    

    
    <glyph glyph-name="jiantouzuo" unicode="&#58880;" d="M714.416-148.294c13.023 12.711 32.599 31.816 55.386 54.054C637.309 35.668 505.577 164.84 373.099 294.735c135.675 133.566 267.109 262.952 398.507 392.311-25.771 24.939-45.768 44.286-63.432 61.382-150.093-147.081-301.99-295.93-455.779-446.632C407.779 150.424 560.566 1.584 714.416-148.294z"  horiz-adv-x="1024" />

    
    <glyph glyph-name="sousuo" unicode="&#58881;" d="M1021.559926-122.813748 707.801966 184.21802c50.583049 65.680908 80.659041 147.675364 80.659041 236.505505 0 215.285205-176.645163 390.441457-393.779482 390.441457-217.135342 0-393.778458-175.156252-393.778458-390.441457 0-215.287251 176.642093-390.441457 393.778458-390.441457 83.200934 0 160.455435 25.717731 224.106104 69.555146L935.090553-209.684258c4.798283-4.696975 15.140839-2.018983 23.098068 5.975085l57.646931 57.918108C1023.793804-137.796998 1026.357186-127.511747 1021.559926-122.813748zM79.658759 420.723525c0 172.228573 141.321656 312.352961 315.022767 312.352961 173.700087 0 315.022767-140.124388 315.022767-312.352961 0-172.231643-141.322679-312.357054-315.022767-312.357054C220.980415 108.366472 79.658759 248.491883 79.658759 420.723525z"  horiz-adv-x="1024" />

    
    <glyph glyph-name="hunlimiyue" unicode="&#58882;" d="M643.430494 219.182937c-9.173029 34.601526-36.430407 123.794482-73.562107 168.252951-3.832574 4.599293-7.785778 8.70993-11.830988 12.247061-10.037888 8.770245-26.799392 22.901391-32.088732 33.813339-7.107998 14.696474-9.159739 67.180959-5.07977 83.248326-1.646913 0.522391-3.232488 1.001846-4.778194 1.473123 0.873038 19.937766-8.756956 38.266444-17.353411 55.558518-3.925602 7.905386-23.410493 49.358315-21.170651 56.029795 0.624621-0.710493 1.258442-1.369872 1.884085-1.995515 0.029646-0.034758 0.047025-0.051115 0.081783-0.085873 0.055204-0.068494 0.119608-0.103252 0.174812-0.170723 0.844413-0.821923 1.687805-1.592731 2.527106-2.286868 0.081783-0.068494 0.163567-0.119608 0.244328-0.188102 0.855659-0.702315 1.70825-1.345337 2.551642-1.91782 0.068494-0.034758 0.115519-0.061338 0.170723-0.103252 0.878149-0.582707 1.756298-1.105098 2.603778-1.549795 0.008178-0.017379 0.025557-0.017379 0.051115-0.025557 2.658982-1.40463 5.233114-2.200995 7.618122-2.560842 0.042936-0.008178 0.072583-0.017379 0.09814-0.025557 0.761608-0.094051 1.503792-0.154366 2.214285-0.170723 0.051115 0 0.114497-0.008178 0.162544-0.008178 0.705382-0.017379 1.37805 0.017379 2.028228 0.08485 0.064404 0.008178 0.129831 0.008178 0.193213 0.008178 0.633821 0.068494 1.250263 0.179923 1.837059 0.317933 0.072583 0.008178 0.138009 0.025557 0.20957 0.042936 0.578617 0.136987 1.122477 0.308732 1.640779 0.506035 0.07156 0.017379 0.135965 0.051115 0.20957 0.076672 0.505012 0.19628 0.988557 0.42834 1.441432 0.659379 0.060315 0.042936 0.116541 0.077694 0.180946 0.103252 0.436519 0.256595 0.851569 0.522391 1.232884 0.821923 0.043959 0.034758 0.099162 0.077694 0.138009 0.103252 0.381315 0.298509 0.722761 0.616442 1.014114 0.941531 0.052137 0.034758 0.064404 0.085873 0.099162 0.119608 0.299532 0.326111 0.570439 0.668579 0.788187 1.036604 0.021468 0.033736 0.037825 0.060315 0.056226 0.094051 0.20957 0.377226 0.398694 0.745251 0.518302 1.130655 0.009201 0.025557 0.009201 0.042936 0.017379 0.068494 0.123697 0.394605 0.20957 0.805566 0.226949 1.208349 4.942783-7.382995 24.6536 0 24.362247 13.155879-0.056226 2.441234-0.796366 5.069547-2.445323 7.845071 2.971804 1.079541 4.231268 4.025787 4.213889 7.717284-0.008178 0.633821-0.056226 1.2932-0.119608 1.952578-0.072583 0.633821-0.171745 1.267642-0.299532 1.936222-0.325089 1.593754-0.822945 3.2468-1.456766 4.881446-0.624621 1.601932-1.370894 3.194663-2.23882 4.710723-0.291353 0.522391-0.609286 1.010025-0.924152 1.516059-1.045805 1.618289-2.214285 3.116969-3.481927 4.401991-2.629336 2.715208-5.678834 4.530799-8.813182 4.685165 3.687408 2.012893 6.636721 11.160365 7.177514 21.103179 0.500923 9.267079-1.086697 19.236474-6.13682 24.786498-0.089962 5.018433-2.23882 8.915411-5.339433 12.084517-3.644472 3.769192-8.626102 6.518135-13.147701 8.93279-0.761608 0.420162-1.575352 0.805566-2.402387 1.173592-1.031493 0.463098-2.102855 0.882238-3.202842 1.275821-12.011934 4.350876-27.244089 4.933582-34.155807 4.248647-7.052794-0.702315-11.82281-1.841148-14.007449-5.952808-0.308732-0.582707-0.577595-1.233907-0.770808-1.952578l-0.260685-0.154366 0 0c-6.590718-4.170952-16.58567-11.527368-19.47569-18.010745-2.90331-6.561072-0.299532-10.037888-5.540824-14.34685-3.400144-2.774501-7.922765-4.753659-14.161815-6.329011-2.149881-0.53977-3.275424-0.162544-1.567174-2.500527l4.20571-6.046859-5.48562-4.410169c0.753429-3.605625 2.205084-6.329011 4.886557-8.856118-2.239842 0.22286-3.010651 0.522391-5.576604-0.590885 0.261707-1.823769 0.925175-5.317964-0.146188-6.98839-0.659379-1.011047-1.241063-1.866706-3.228399-3.896978-1.275821-1.318757-1.755276-3.8888-1.695983-5.857735 0.291353-12.898262 28.828642-7.082441 36.507079-14.414321 3.627093-3.486017 10.897636-37.590709 11.5151-49.546417 0.681869-12.881905-0.179923-17.164287-0.179923-17.164287s-4.710723-10.517343-5.888403-14.492015c-3.588246-12.084517-9.926458-20.494915-16.800351-28.665075-2.984071-3.520775-16.936316-16.872934-18.024035-28.220378-1.095897-11.313709 12.546593-33.350241 24.397005-38.42081l0.021468-0.017379c-1.743008-14.833461-4.591115-42.275874-6.432263-48.399405-2.166237-7.244985-30.554271-82.485696-38.395253-103.272987-3.636294 1.61011-7.635501 2.982027-11.245215 3.965472-1.160302 0.317933-2.158059 0.694136-3.036208 1.122477l-0.038847 0.017379 14.230308 12.873727c0.068494 0.068494 0.068494 0.19628 0.025557 0.384382-0.646089 2.200995-9.103513 12.769453-15.839396 22.190898-1.979158 2.774501-3.820306 5.455974-5.259694 7.793956-7.592565 11.512033-10.881279 23.090515-22.314596 48.930997 1.841148 38.540418 11.026444 73.330047 11.026444 112.025854 0 22.72249-9.257879 60.595352-15.150371 100.154996-0.710493 4.796595-2.257221 9.644305-4.372344 14.474636-2.321626 5.275028-5.379302 10.517343-8.877586 15.612448-1.494591 2.200995-3.045409 4.368255-4.697433 6.500757l13.728363 13.326602c1.558996 1.515037 19.50227-7.254186 25.043094-7.931966 5.532646-0.650178 8.389953 6.235983 9.177118 9.532875 0.796366 3.296893 0.76263 4.367233 2.085476 5.15542 1.576375 0.934375 3.845864 0.197302 5.078748 1.670426 0.74934 0.891439-1.588642 4.19651-2.106944 5.489709 2.732587 0.170723 8.975726 0.788187 8.525918 2.895132-0.021468 2.629336-1.19097 2.312425-0.381315 5.096127l7.071196 0.547949c1.412808-0.11143 3.091412 1.019225 2.804148 2.543463-1.49868 7.494425-4.552267 18.790754-4.136195 20.537852 0.518302 2.243932 2.085476 2.723387 3.609714 4.462306 2.15397 2.458613 0.042936 10.354798 2.809259 18.216226 0.274997 0.514213 0.518302 0.959932 0.745251 1.396451 3.99614-1.713362 6.864693 0.753429 8.350083 11.074492 1.631578 11.279973-8.633258 26.062319-16.748214 31.671637-18.722261 12.94222-36.687003 17.498577-60.398049 7.999437-0.106318-0.042936-0.19628-0.068494-0.295442-0.119608-4.299761-1.738919-7.935033-3.939914-10.140117-5.413038-1.422009-0.95891-2.248021-1.592731-2.248021-1.592731-0.107341-0.025557-0.214681-0.076672-0.317933-0.11143-4.252736-1.275821-10.281193-5.687012-14.024828-11.810543-1.905553-2.842995-3.400144-6.003922-4.136195-9.335573-2.612979-11.72467-4.62485-31.32099-5.293429-39.140504-0.390516-4.634051-8.535118-19.527827-7.545539-18.354235 0.706404-0.590885 1.477212-1.207327 2.285846-1.850349l-4.192421-5.207557c0 0 0 0-0.008178 0.008178l-0.025557-0.051115c-4.796595 4.025787-6.111263 5.138041-6.449642 4.984697-0.325089-0.136987-2.753033-9.46336-4.431637-14.09741-0.115519-0.30771-0.226949-0.599063-0.325089-0.856681-1.686782-4.213889-25.252664-29.462463-37.872862-39.560666-12.629399-10.097181-29.197689-96.780409-28.353276-122.868285 0.201392-6.551871 0.30771-14.508372 0.299532-23.509655 0-2.243932-0.008178-4.564535-0.025557-6.937275-0.009201-1.19097-0.01329-2.389097-0.021468-3.614825-0.381315-43.843048-2.826638-106.287727-6.624454-155.286195-0.30771-4.067701-0.63791-8.067931-0.9722-11.938329-1.558996-18.088439-3.327561-33.736667-5.233114-45.067755 0 0 4.51751-1.892263 12.559883-5.549002l0.025557-0.335312 0 0c2.962603-40.776172 11.279973-120.838013 11.5151-130.669398 0.218771-9.858987 1.678604-37.025381 1.678604-47.122562 0-10.108426-16.178797-72.878193-17.00072-93.081756-0.851569-20.196406-0.381315-55.910186 0.462076-73.579486 0.843391-17.6785 4.496041-70.881657 5.340455-80.456446 0.83419-9.574789-3.481927-29.40317-5.069547-34.694555-0.522391-1.737897-1.294222-4.161752-1.648957-5.317964-0.445719-1.41383 4.145395-0.052137 7.490335 0.401761l0.496834-7.340058 36.190169 0 8.414488 9.250723 9.254812-9.002306 87.317049-0.076672c6.021301 0.864859 16.854533 2.68045 14.833461 7.399351-2.038451 4.718901-34.220211 7.510781-39.876554 10.020509-5.648165 2.518928-11.322909 6.997591-18.080261 11.998644 4.153573 1.071362 7.369705 1.75732 6.825845 2.509728-3.515663 4.873267-23.489209 21.042864-26.439545 47.252393-2.989183 26.190106 21.574456 210.510424 21.574456 210.510424l22.259392 176.740021c4.269093 1.49868 6.98839 3.032119 7.442288 4.488885 0.19628 0.632799 0.20957 4.547156 0.217748 9.257879 0 0.660401 0 1.353515 0 2.047651 0.008178 5.566381 0.025557 11.707291 0.291353 14.705674 0.085873-0.213659 0.179923-0.359847 0.295442-0.471277 0.01329-0.008178 0.029646-0.042936 0.056226-0.051115 0.116541-0.094051 0.226949-0.136987 0.363936-0.154366 0.033736 0 0.051115 0 0.080761 0 0.132898 0 0.270907 0.034758 0.406872 0.077694 0.017379 0.008178 0.025557 0.008178 0.047025 0.008178 0.162544 0.051115 0.33429 0.127787 0.506035 0.223882 0.038847 0.017379 0.080761 0.042936 0.110408 0.060315 0.179923 0.08485 0.360869 0.170723 0.535681 0.256595 0.154366 0.068494 0.303621 0.146188 0.44163 0.19628 0.038847 0.017379 0.081783 0.034758 0.11143 0.042936 0.170723 0.060315 0.333267 0.08485 0.488656 0.103252 0.042936 0.008178 0.064404 0 0.106318 0 0.167656 0 0.321-0.025557 0.470254-0.094051l0 0c0.299532-0.162544 0.574528-0.505012 0.770808-1.122477 1.83297-5.558203 4.184242-11.493632 7.708084-14.508372-2.809259-5.489709-5.27605-11.08267-7.481135-16.383256-0.859748-2.072186-2.218374-3.913335-2.346161-5.978365-0.09814-1.490502 3.147638-0.479455 3.935825 0.84748l6.221671 10.645129-3.366408-15.15855c-1.126566-3.323472 2.214285-3.476816 4.569646 1.087719l8.457424 16.281027c0 0 6.79211-0.248417 15.06041-0.538748-3.343918-4.642229-9.571723-5.884314-9.571723-5.884314s-9.266057 2.517906-6.739973-2.517906c2.531196-5.053191 10.937505-1.686782 10.937505-1.686782-0.244328-3.049498 4.830331-4.146417 7.580297-3.366408 6.012101 1.704161 13.575019 6.329011 16.828975 10.937505l3.2376 1.798212c2.697829-0.068494 4.838509-0.119608 6.02948-0.119608 6.727705 0 10.932394 21.883188 12.620198 28.613961 1.583531 6.364792 50.157748 95.144741 55.562607 105.011906l0 0 0.496834 0.907796c0.791254-3.733411 1.549795-7.159113 2.269489-10.388534 3.314272-14.807903 6.080594-25.205638 10.32413-40.331475 20.165737-71.659621 5.559225-470.412898-9.737334-548.496604-0.033736-0.162544-0.055204-0.30771-0.089962-0.480477-0.179923-0.881216-0.362914-1.728696-0.534659-2.534263-1.242085-5.566381-2.47497-9.036041-3.687408-9.986773l0 0 0 0c34.703756-30.24145 336.476255-28.237757 420.545482 18.328678C798.613438-166.055637 666.906414 130.693318 643.430494 219.182937zM568.404465 624.881668c7.23374-19.90403 2.967714-60.234483 14.649448-70.135383 9.17814-7.775555 18.465665 12.701981 26.251443 22.619239 5.699279 7.271565 10.392623 9.840585 13.03116-3.511574 7.438199-37.753253 29.723148-16.924048 54.830646 6.551871 24.096451 22.525188 50.753744 47.447651 69.694775 26.961936 10.573569-11.425138 19.073929-25.51437 31.060306-31.31179 24.645422-11.922995 52.641918-2.200995 63.670407 29.59945l2.945224 3.297915c-13.412475-38.652871-44.013771-52.140995-69.963638-39.586223-12.007845 5.80662-20.537852 19.878473-31.132889 31.329169-18.670124 20.204584-44.933834-4.342698-68.684751-26.541774-25.624778-23.947196-48.364647-45.221098-55.969479-6.655123-2.441234 12.384049-6.371948 10.534722-11.08267 4.538978-8.298969-10.585836-18.225427-32.2707-28.053744-23.937996-11.892326 10.080824-7.463756 50.231353-14.760878 70.316329-8.697663 23.955375-27.518063 36.176879-39.777392 23.286796C534.43676 658.841195 560.922308 645.505392 568.404465 624.881668L568.404465 624.881668zM593.991418 597.552729c5.728926-35.192411 21.989507-82.280215 38.882886-73.947511 13.159968 6.483378 22.178631 36.07465 31.162535 54.291898 7.818491 15.861887 45.268124 82.648241 50.393897 58.915726 1.558996-7.228629-1.327958-22.738847-3.97365-36.982445-2.214285-11.913794-4.270115-22.91877-3.284625-26.901621 0.950732-3.871421 4.992875-0.822945 15.15855 15.398788 16.414947 26.190106 33.979973 50.213974 54.051659 41.204512l-3.343918-6.714416c-19.103576 8.582144-35.449007-13.112943-51.096212-38.078342-12.225593-19.50227-17.116239-23.047579-18.311299-18.20907-1.074429 4.368255 1.036604 15.7341 3.328584 28.041477 2.585377 13.90113 5.403837 29.034123 3.925602 35.877347-4.620761 21.377154-37.842193-39.842819-45.041175-54.445242-10.337419-20.975393-21.115447-51.731056-35.912105-59.036356-17.184733-8.478892-33.654884 38.360495-39.495239 74.281801-11.129696 68.397486-39.774325 74.906421-65.386836 50.436834C551.566289 683.559199 582.412936 668.733917 593.991418 597.552729L593.991418 597.552729zM622.857885 473.176562c3.636294 1.001846 5.93134 0.925175 7.888007-1.447566 2.158059-2.611957 1.52526-6.688858-1.40463-9.104535-5.304675-4.385634-14.508372-4.042144-23.728426-3.683319 1.423031 9.095334 2.809259 18.199869 8.114956 22.585503 2.928867 2.423855 7.052794 2.269489 9.211876-0.342468C624.896335 478.820638 624.537511 476.551149 622.857885 473.176562L622.857885 473.176562zM671.312494 410.149177c3.182396 3.134348 5.606251 4.367233 9.002306 3.048476 3.730344-1.464945 5.434506-6.046859 3.794749-10.251547-2.976915-7.597676-12.715271-12.547615-22.443404-17.514933-3.816217 10.252569-7.623233 20.504116-4.642229 28.10077 1.631578 4.19651 5.994722 6.414884 9.737334 4.95914C670.152192 417.164147 671.111102 414.611483 671.312494 410.149177L671.312494 410.149177z"  horiz-adv-x="1024" />

    
    <glyph glyph-name="kafei" unicode="&#58883;" d="M974.848 284.493714C963.730286 300.877714 940.617143 320.772571 893.220571 320.772571L837.924571 320.772571C838.802286 355.881143 836.461714 378.994286 836.461714 378.994286L69.632 378.994286C69.632 378.994286 53.833143 231.830857 119.369143 116.265143 160.621714 44.292571 185.490286 23.52 220.891429-12.173714 280.283429-71.858286 351.670857-71.858286 351.670857-71.858286L552.96-71.858286C552.96-71.858286 624.347429-71.858286 682.861714-13.929143 696.32-0.178286 708.900571 11.232 721.188571 24.690286 923.062857 35.808 974.262857 176.827429 980.406857 195.552 984.210286 205.792 998.253714 249.385143 974.848 284.493714L974.848 284.493714ZM916.333714 219.835429 915.163429 216.324571C914.870857 215.446857 889.709714 131.478857 778.532571 102.221714 781.165714 106.610286 783.798857 111.291429 786.724571 116.265143 811.593143 160.443429 824.758857 209.010286 831.488 252.310857L893.220571 252.310857C909.604571 252.310857 916.626286 248.507429 918.089143 246.459429 921.307429 241.778286 919.552 228.32 916.333714 219.835429L916.333714 219.835429ZM855.976229-122.209829 51.843657-122.209829C3.452343-174.580114 319.166171-207.933257 319.166171-207.933257L588.5952-207.933257C588.5952-207.933257 894.888229-175.808914 855.976229-122.209829M524.580571 441.604571C525.458286 438.678857 515.803429 435.168 512.585143 436.338286 415.744 497.193143 439.149714 582.038857 502.345143 644.064 550.619429 691.168 586.605714 714.866286 586.898286 789.472 586.605714 796.201143 601.234286 797.078857 603.574857 794.153143 722.651429 625.339429 455.826286 616.562286 524.580571 441.604571M349.915429 441.604571C351.085714 438.678857 341.430857 435.168 338.212571 436.338286 241.371429 497.193143 264.484571 582.038857 327.972571 644.064 375.954286 691.168 411.940571 714.866286 412.233143 789.472 412.233143 796.201143 426.861714 797.078857 429.202286 794.153143 548.278857 625.339429 281.161143 616.562286 349.915429 441.604571"  horiz-adv-x="1024" />

    
    <glyph glyph-name="fenxiang" unicode="&#58884;" d="M864.909655 284.840742c-18.73469 0-33.933857-15.20019-33.933857-33.933857l0-296.659537c0-6.229888-5.081739-11.311627-11.311627-11.311627L144.757918-57.064278c-6.229888 0-11.311627 5.081739-11.311627 11.311627L133.446291 625.398068c0 6.241145 5.081739 11.311627 11.311627 11.311627l409.353179 0c18.73469 0 33.933857 15.188934 33.933857 33.933857s-15.20019 33.933857-33.933857 33.933857l-409.353179 0c-43.655266 0-79.17934-35.525098-79.17934-79.17934l0-671.15072c0-43.655266 35.525098-79.17934 79.17934-79.17934l674.906254 0c43.655266 0 79.17934 35.525098 79.17934 79.17934L898.843512 250.906885C898.843512 269.640552 883.644345 284.840742 864.909655 284.840742zM957.322391 547.742431 785.53077 717.413761c-13.3214 13.156648-34.795481 13.046131-47.984874-0.297782-13.166881-13.332656-13.034874-34.817993 0.309038-47.996131l114.101711-112.695688c-398.379243-15.948227-486.772432-385.191896-487.687268-389.159254-4.1536-18.270109 7.312546-36.453237 25.583678-40.605813 2.518357-0.574075 5.059226-0.839111 7.53358-0.839111 15.509229 0 29.493731 10.671037 33.072233 26.422789 3.167133 13.951757 76.960813 321.934177 422.731884 336.390423L730.784912 360.386322c-12.945847-13.553691-12.438287-35.039028 1.104147-47.973618 6.583952-6.27389 15.023158-9.388834 23.439852-9.388834 8.947789 0 17.873066 3.523243 24.545022 10.505261l178.154539 186.637748C970.820823 513.553771 970.511785 534.730069 957.322391 547.742431z"  horiz-adv-x="1024" />

    
    <glyph glyph-name="3" unicode="&#58911;" d="M681.398108-143.388343c-12.612249 0-25.286919 1.066285-37.662785 3.184529-46.306652 7.890714-85.020372 27.357068-110.574375 55.326073-13.866822-4.612041-30.149671-3.090385-40.314171 0.156566-25.428136-29.569456-69.412906-50.039673-120.691803-55.623855-90.809215-9.834996-162.810063 20.659529-169.994696 69.412906-5.945409 39.812751 36.408211 71.075779 81.820494 89.130993-19.921725 24.988114-35.106566 53.930283-43.74941 83.200934-24.722054-29.67895-45.977147-48.581462-70.087265-42.760896-8.03193 1.913583-19.326161 7.937786-27.624151 25.75764-16.439414 35.231409-16.078187 108.393709 16.972557 174.558641 13.364379 26.761504 32.000831 48.690956 47.529503 65.742307-5.881964 12.548804-11.576663 27.748994-11.576663 41.22389 0 22.274306 9.725502 41.694611 28.251438 56.691163-1.662873 12.706393-2.463098 24.424272-2.463098 35.560914 0 161.100118 127.98593 287.297308 291.376207 287.297308 161.695682 0 293.242717-128.880299 293.242717-287.297308l0.047072-7.843642c0.062422-8.126075 0.141216-17.004279-0.376577-25.505907 15.184841-11.105942 24.251334-26.729781 24.251334-58.902528 0-13.505595-1.160429-27.937283-7.921413-39.216163 13.035898-18.478863 27.38879-41.349757 40.314171-61.945841l2.77623-4.423753c31.027667-49.397037 34.165124-135.405923 16.156982-176.441525-8.079002-18.400069-19.043728-23.984251-26.839275-25.428136-3.670599-0.674359-7.199982-0.988514-10.604522-0.988514 0 0 0 0-0.01535 0-27.13808 0-45.003983 18.85544-60.659545 41.003879-9.459442-28.28316-24.612561-57.145511-42.400692-80.455403 53.082986-21.741163 80.707137-52.173267 76.518744-85.255733C811.628148-110.635381 753.289462-143.388343 681.398108-143.388343zM541.883611-44.015078l8.659217-11.544941c20.062941-26.745131 55.075363-45.553499 98.589412-52.988842 10.588149-1.787716 21.458731-2.713808 32.266891-2.713808 57.616232 0 100.958366 25.333992 103.82874 48.063669 2.51017 19.765159-27.65485 42.839691-76.831876 58.793034l-24.502044 7.953136 17.929348 18.510586c28.658713 29.569456 52.643987 78.05575 58.337663 117.883851l5.851265 40.910759 32.251541-47.529503c15.403828-23.466458 28.705785-43.718711 45.38056-43.718711 0.01535 0 0.01535 0 0.01535 0 1.537006 0 3.121084 0.156566 4.768607 0.455371 11.231809 8.203846 22.902616 99.70277-10.682293 153.178705l-2.792603 4.439102c-15.247262 24.313755-32.533974 51.859112-46.604434 70.510914l-10.541077 13.960966 14.808264 9.318226c4.376681 2.76088 5.03569 16.501836 5.03569 24.454972 0 27.059286-6.760984 30.918173-16.98893 36.737716l-9.474792 5.395894 1.521656 10.80816c1.254573 8.94165 1.160429 20.769023 1.066285 31.184233l-0.047072 8.126075c0 140.707672-117.130697 255.171634-261.117043 255.171634-145.366785 0-259.250532-112.079658-259.250532-255.171634 0-12.251022 1.12973-25.458835 3.482311-40.361243l1.600451-10.290367-8.721639-5.662977c-14.902408-9.710153-22.149463-21.458731-22.149463-35.93749 0-7.670703 4.376681-19.968797 13.004175-36.564777l5.207605-10.007935-7.670703-8.29799c-16.188704-17.505699-36.314067-39.294958-49.883107-66.447365-26.776853-53.616128-29.616528-117.522624-16.894785-145.978722 2.964518-6.65149 5.693676-8.580422 6.274914-8.736988 0.031722 0 0.062422 0 0.109494 0 11.827373 0 31.278377 23.906479 50.086745 47.043433l33.098839 40.392966 4.203742-37.882795c4.454452-40.329521 26.776853-85.272106 58.228169-117.318986l18.697851-19.043728-25.584702-7.608282c-50.071396-14.870686-85.538165-41.380456-82.511225-61.695131 4.297886-29.349445 65.506946-49.726541 134.731564-42.180681 47.859008 5.207605 87.295182 24.674982 105.476263 52.079122l5.082762 7.655354 12.423961-0.674359 4.220115-2.007727c4.314259-2.086521 21.019733-7.576559 33.600259-0.047072L541.883611-44.015078z"  horiz-adv-x="1024" />

    
    <glyph glyph-name="tupian" unicode="&#58885;" d="M690 212.5 574.1 97.8c-0.1-0.1-0.3-0.2-0.4-0.3-9.1-9.1-9.1-23.9 0-33.1 9.1-9.1 23.9-9.1 33.1 0 0.6 0.6 0.8 1.4 1.4 2l69.9 69.9 33 33.1c0 0 22.7-21.3 23.2-21 8.7-4.1 19.3-2.8 26.4 4.4 9.1 9.1 9.1 23.9 0 33.1 0 0 0 0 0 0l0 0-16.5 16.5c0 0-3.1 3.5-4.8 5.2C725.8 221.1 705.1 222.7 690 212.5zM783.2 97.4 783.2 97.4l10.6-10.7 0 0c0 0 0 0 0 0 9.1-9.1 23.9-9.1 33.1 0 9.1 9.1 9.1 23.9 0 33.1 0 0 0 0 0 0l0 0-10.7 10.7-0.1-0.1c-0.1 0.1-0.2 0.3-0.3 0.4-9.1 9.1-23.9 9.1-33.1 0-9.1-9.1-9.1-23.9 0-33.1C782.9 97.6 783 97.5 783.2 97.4zM856.2 763.1 169.8 763.1C100.8 763.1 45 707.3 45 638.3l0-686.4c0-68.9 55.9-124.8 124.8-124.8l686.4 0c68.9 0 124.8 55.9 124.8 124.8L981 638.3C981 707.3 925.1 763.1 856.2 763.1zM918.6-48.1c0-34.5-27.9-62.4-62.4-62.4L169.8-110.5c-34.5 0-62.4 27.9-62.4 62.4l0 74 166 158.9c5.6 4.7 9.2 5 14.8 0.1l127.5-104.3c11-7.7 23-17.3 32.4-17.3s20.6 3.2 32.7 15.3l231.7 231.7c1.2-0.1 2.4-0.4 3.7-0.4 0.4 0 0.8 0.1 1.2 0.1l201.2-216L918.6-48.1zM918.6 185.6 752 364.4c-6 13.8-19.7 23.5-35.8 23.5-14.4 0-26.8-7.8-33.5-19.4l-228-228c-6.6-4.7-6.6-4.7-13.8 0L311.5 246.4c-7.1 9.5-18.4 15.7-31.1 15.7-6.5 0-12.6-1.8-18-4.6l-6.1-3.9c-2-1.5-3.7-3.3-5.4-5.1L107.4 111 107.4 638.3c0 34.5 27.9 62.4 62.4 62.4l686.4 0c34.5 0 62.4-27.9 62.4-62.4L918.6 185.6zM325.8 607.1c-51.7 0-93.6-41.9-93.6-93.6s41.9-93.6 93.6-93.6 93.6 41.9 93.6 93.6S377.5 607.1 325.8 607.1zM325.8 482.3c-17.2 0-31.2 14-31.2 31.2s14 31.2 31.2 31.2c17.2 0 31.2-14 31.2-31.2S343 482.3 325.8 482.3zM731.3 129.9"  horiz-adv-x="1024" />

    
    <glyph glyph-name="iconfontwaimaisongcan" unicode="&#58886;" d="M923.777903 272.873176c0 0 0.102331 2.709715 0.102331 5.757121 0 209.298863-156.11764 382.13528-358.258477 408.413783l0 5.097088c0.020466 0.552585 0.039909 1.104147 0.039909 1.660826 0 24.705682-20.030196 44.735877-44.735877 44.735877-24.287149 0-44.043099-19.360953-44.707225-43.490513l-0.010233 0 0-0.396019c-0.005117-0.282433-0.01842-0.565888-0.01842-0.848321 0-0.288572 0.013303-0.567935 0.01842-0.850367l0-3.984754c-210.710003-18.138102-376.080378-194.919365-376.080378-410.337599 0-1.918699 0.01535-3.837398 0.038886-5.757121L923.777903 272.873176 923.777903 272.873176zM512.365832 595.379381c147.015332 0 271.027763-98.42159 309.777299-232.966912L202.588533 362.412468C241.338069 496.957791 365.3505 595.379381 512.365832 595.379381L512.365832 595.379381zM925.222811 218.992011l0 0.033769L100.127953 219.025781c-19.677155 0-35.624359-15.951297-35.624359-35.624359 0-19.677155 15.947204-35.624359 35.624359-35.624359 0.693802 0 822.302255-0.258896 823.902706-0.258896 19.745716 0 35.751249 16.010649 35.751249 35.752272 0 19.34458-15.364943 35.092239-34.56012 35.727713L925.221788 218.992011zM678.687882 83.695582c-8.843412 0-17.075911-2.583848-24.013927-7.02602l-0.020466 0.033769L434.338734-49.462137 189.664176-49.462137 189.664176 4.321814l172.234713 0.058328c23.721261 1.044796 42.630936 20.600177 42.630936 44.574195 0 23.978111-18.909675 43.539632-42.630936 44.584428l0 0c0 0-230.740198-0.039909-230.964302-0.039909-16.968463 0-30.723745-13.753235-30.723745-30.721699l0-170.876786c0-16.928554 13.755282-30.642904 30.723745-30.642904 0.218988 0 327.666738 0.062422 327.666738 0.062422l0 0.298805 240.36337 137.722688c14.443967 7.387247 24.336268 22.402219 24.336268 39.74112 0 24.633027-19.97596 44.61001-44.61308 44.61001L678.687882 83.695582zM678.687882 83.695582"  horiz-adv-x="1024" />

    
    <glyph glyph-name="youhuiquan" unicode="&#58887;" d="M934.42048 632.47232c-23.38816-23.38816-37.6832-55.66464-37.6832-90.39872 0-47.02208 26.17344-89.53856 65.82272-111.69792l0-18.88256c-39.60832-22.15936-65.82272-64.67584-65.82272-111.69792 0-47.06304 26.25536-89.62048 65.82272-111.77984l0-18.8416c-39.64928-22.1184-65.82272-64.63488-65.82272-111.73888 0-34.48832 14.1312-66.51904 37.64224-89.98912L91.29984-32.55424c22.77376 23.30624 36.61824 55.0912 36.61824 89.2928 0 47.104-26.29632 89.7024-65.82272 111.77984L62.09536 187.36c39.64928 22.1184 65.82272 64.67584 65.82272 111.77984 0 46.98112-26.13248 89.4976-65.82272 111.69792L62.09536 429.59744c39.64928 22.1184 65.82272 64.67584 65.82272 111.77984 0 35.06176-14.5408 67.62496-38.33856 91.136L934.42048 632.51328M1007.0016 693.91232 17.03936 693.91232C7.65952 693.91232 0 686.33472 0 676.87296l0-52.14208c0-1.76128 0.53248-3.2768 0.94208-4.79232 0.04096-0.16384 0.08192-0.32768 0.08192-0.49152C1.31072 618.62784 1.6384 617.8496 2.048 617.0304c1.96608-5.28384 6.18496-9.50272 12.0832-10.81344 30.35136-6.47168 52.34688-33.75104 52.34688-64.88064 0-31.04768-21.99552-58.40896-52.34688-64.88064-9.17504-1.92512-14.9504-10.89536-13.06624-20.0704-0.08192-0.65536-0.4096-1.26976-0.4096-1.92512l0-70.41024c0-0.73728 0.32768-1.26976 0.36864-1.92512-0.77824-8.3968 4.58752-16.384 13.1072-18.14528 30.35136-6.47168 52.34688-33.75104 52.34688-64.88064s-21.99552-58.40896-52.34688-64.88064c-7.7824-1.67936-12.82048-8.47872-13.1072-16.09728-0.08192-0.65536-0.36864-1.10592-0.36864-1.76128l0-77.2096c0-0.57344 0.28672-1.10592 0.36864-1.67936 0.08192-1.76128 0.4096-3.2768 0.94208-4.87424 0.04096 0 0.04096-0.08192 0.08192-0.08192 1.96608-5.28384 6.18496-9.58464 12.0832-10.89536 30.35136-6.47168 52.34688-33.75104 52.34688-64.88064 0-31.04768-21.99552-58.32704-52.34688-64.79872-8.15104-1.76128-13.35296-9.216-13.1072-17.2032-0.32768-1.35168-0.8192-2.62144-0.8192-4.01408l0-46.73536C0.16384-76.25856 0-76.54528 0-76.87296c0-9.4208 7.65952-17.03936 17.03936-17.03936l989.96224 0c9.37984 0 16.9984 7.61856 16.9984 17.03936l0 52.96128c0 0.57344-0.28672 1.024-0.32768 1.59744-0.12288 1.10592-0.32768 2.17088-0.65536 3.19488-0.32768 1.10592-0.73728 2.17088-1.26976 3.19488-0.45056 0.8192-0.98304 1.59744-1.59744 2.33472-0.77824 1.024-1.55648 1.8432-2.53952 2.62144-0.69632 0.57344-1.4336 1.024-2.21184 1.51552-1.14688 0.65536-2.37568 1.18784-3.6864 1.59744-0.45056 0.08192-0.77824 0.4096-1.18784 0.49152-30.35136 6.5536-52.38784 33.83296-52.38784 64.88064 0 31.1296 22.03648 58.40896 52.38784 64.88064 7.70048 1.67936 12.77952 8.31488 13.1072 15.85152C1023.71328 138.86336 1024 139.35488 1024 139.92832l0 77.2096c0 0.65536-0.28672 1.10592-0.32768 1.67936-0.24576 7.70048-5.3248 14.49984-13.1072 16.1792-30.35136 6.47168-52.38784 33.75104-52.38784 64.88064 0 31.04768 22.03648 58.32704 52.38784 64.88064 9.216 1.92512 15.03232 10.97728 13.02528 20.15232l0 0.08192c0.08192 0.73728 0.4096 1.35168 0.4096 2.08896L1024 455.11552c0 0.73728-0.32768 1.26976-0.4096 2.00704 1.92512 9.13408-3.8912 18.14528-13.02528 20.0704-30.35136 6.47168-52.38784 33.75104-52.38784 64.88064s22.03648 58.40896 52.38784 64.88064c8.43776 1.76128 13.76256 9.58464 13.06624 17.98144C1023.71328 625.59104 1024 626.16448 1024 626.81984L1024 676.87296C1024 686.33472 1016.38144 693.91232 1007.0016 693.91232L1007.0016 693.91232zM644.096 183.22304l-102.72768 0 0-73.40032c0-8.02816-6.5536-14.62272-14.66368-14.62272l-29.36832 0c-8.11008 0-14.66368 6.59456-14.66368 14.62272l0 73.40032L379.904 183.22304c-8.11008 0-14.70464 6.59456-14.70464 14.66368l0 29.40928c0 8.06912 6.59456 14.66368 14.70464 14.66368l102.72768 0 0 58.73664L379.904 300.69632c-8.11008 0-14.70464 6.5536-14.70464 14.66368l0 29.32736c0 8.11008 6.59456 14.66368 14.70464 14.66368l80.896 0L370.36032 458.3104c-5.16096 5.61152-5.16096 14.78656 0 20.43904l18.71872 20.43904c5.16096 5.65248 13.47584 5.65248 18.6368 0l103.50592-113.21344 104.69376 114.56512c5.20192 5.69344 13.63968 5.69344 18.88256 0l18.8416-20.60288c5.20192-5.69344 5.20192-14.90944 0-20.60288l-91.3408-99.9424 81.79712 0c8.11008 0 14.70464-6.5536 14.70464-14.66368l0-29.32736c0-8.11008-6.59456-14.66368-14.70464-14.66368l-102.72768 0 0-58.73664 102.72768 0c8.11008 0 14.70464-6.59456 14.70464-14.66368l0-29.40928C658.80064 189.85856 652.20608 183.22304 644.096 183.22304L644.096 183.22304 644.096 183.22304z"  horiz-adv-x="1024" />

    
    <glyph glyph-name="5" unicode="&#58888;" d="M959.874005-148.006524 64.04106-148.006524 64.04106 747.841771l895.832945 0L959.874005-148.006524zM903.935995-92.068514 903.935995 691.890458 119.97907 691.890458l0-783.958972L903.935995-92.068514M427.940001 495.873086 427.940001 551.907287 819.945069 551.907287 819.945069 495.873086 427.940001 495.873086ZM343.951121 551.907287 343.951121 495.873086 203.96795 495.873086 203.96795 551.907287 343.951121 551.907287ZM427.940001 271.941967 427.940001 327.921933 819.945069 327.921933 819.945069 271.941967 427.940001 271.941967ZM343.951121 327.921933 343.951121 271.941967 203.96795 271.941967 203.96795 327.921933 343.951121 327.921933ZM427.940001 47.969916 427.940001 103.937602 819.945069 103.937602 819.945069 47.969916 427.940001 47.969916ZM343.951121 103.937602 343.951121 47.969916 203.96795 47.969916 203.96795 103.937602 343.951121 103.937602Z"  horiz-adv-x="1024" />

    
    <glyph glyph-name="mudedi" unicode="&#58889;" d="M928.684 454.51l60.785 27.727-563.705 313.98h-63.526v-622.059c-188.688-9.582-336.26-93.994-336.26-196.73 0-109.145 166.602-197.646 372.112-197.646s372.115 88.502 372.115 197.646c0 104.215-151.855 189.581-344.441 197.102v33.734l502.919 246.244zM425.764 714.89l439.627-227.612-439.627-215.468v443.079zM712.955-22.572c0-77.961-140.972-141.159-314.865-141.159s-314.865 63.199-314.865 141.159c0 72.538 122.005 132.278 279.013 140.258v-85.507c-47.474-5.162-82.135-21.391-82.135-40.635 0-23.383 51.259-42.354 114.494-42.354 63.234 0 114.5 18.969 114.5 42.354 0 19.404-35.245 35.747-83.332 40.765v85.745c160.928-6.284 287.19-66.833 287.19-140.626z"  horiz-adv-x="1024" />

    
    <glyph glyph-name="lvyoudujia" unicode="&#58890;" d="M362.030716 229.322126c-49.568499 57.231456-113.84105 167.602109-80.240387 300.921513 178.956124-78.936481 161.142758-309.768015 180.540872-662.003256-15.045073 0-40.120194 0-40.120194 0l0 80.240387-140.420678 0c0 0-140.420678-10.190529-140.420678-60.180291s111.092816-100.300484 401.201937-100.300484c290.129181 0 341.021646 76.128067 341.021646 100.300484 0 24.212537-28.846419 60.180291-140.420678 60.180291-55.827249 0-80.240387 0-80.240387 0s-14.884592 227.020116 140.420678 461.402287c19.638835-27.321852 46.699905-89.187191-40.120194-200.621028 103.389739 9.729147 124.051639 72.57743 120.360581 160.500835 29.06708-15.065133 51.213427-45.456179 40.120194-160.500835 60.421012 36.389016 93.439931 144.492878 0 220.681125 42.226504-2.547632 64.954594-4.0722 80.240387-80.240387 56.469173 49.80922-18.71607 191.152663-140.420678 160.480775-23.831395 144.733599-240.721162 124.653442-240.721162 40.120194 48.505314 9.608786 103.790941 7.783318 120.360581-20.060097-54.583523-2.186551-120.360581-10.130349-120.360581-160.480775 49.247538 55.666769 69.006733 84.91439 160.480775 80.240387-59.097045-36.148295-180.540872-201.443492-180.540872-581.762868-33.0791-0.481442-60.180291 0-60.180291 0s25.857465 541.020812-200.600968 702.123449c92.176145 8.465361 165.154777 9.929748 240.721162-140.420678 11.354015 82.246397 11.594736 258.674949-180.540872 240.721162 21.083162 41.40404 18.976852 70.47112 180.540872 60.180291-104.914306 154.462746-334.943437 66.3588-341.021646-80.240387 0 0-241.503506 49.72898-240.721162-200.600968 64.092009 63.309666 94.142034 90.150075 120.360581 100.300484-34.182405-47.281648-118.996494-172.757554 0-280.861416 4.11232 145.194981 36.730037 168.564994 60.180291 200.621028C182.853931 397.526038 187.768655 233.956009 362.030716 229.322126"  horiz-adv-x="1024" />

    
    <glyph glyph-name="baoming" unicode="&#58891;" d="M913.419486 433.808542c-20.542872 0-28.829606-19.493983-30.382984-30.348192l0-450.223005c0-30.0412-17.958-51.036373-43.670615-51.036373l-662.887522 0c-27.514657 0-49.884131 22.906709-49.884131 51.036373L126.594233 624.117912c0 28.129664 22.36845 51.001581 49.884131 51.001581L617.313557 675.119493c10.772344 0.338714 31.187303 7.334036 31.187303 31.197536 0 32.499182-30.990828 32.874735-31.308053 32.874735L176.47734 739.191764c-60.024072 0-112.686479-53.766554-112.686479-115.074875l0-670.880567c0-64.552202 49.504484-115.074875 112.686479-115.074875L833.118602-161.838553c63.181995 0 112.679315 50.522674 112.679315 115.074875l-0.082888 451.006857C943.443289 414.453728 933.786349 433.808542 913.419486 433.808542zM294.433846 160.412848c-5.777587-13.384845-9.971096-23.11444-11.406794-26.254967-6.634094-20.276812-7.034207-49.02046 7.783267-64.107063 6.033413-6.212492 15.486716-9.31925 28.067242-9.31925 16.670681 0 34.496675 5.495154 41.831734 8.05956 2.00568 1.02126 206.199269 107.968014 226.7667 129.063471l356.468714 364.16807c15.534811 15.873526 17.226337 34.817993 15.904225 47.930639-1.470491 14.675234-7.717775 29.5582-15.904225 37.889959-46.290279 47.415916-80.087013 78.409814-100.07116 95.853092-25.775037 26.355251-60.85602 23.793916-90.293469-6.378268-1.118474-1.131777-9.287527-9.29162-22.651906-22.599717l-7.965415-7.921413c-67.627237-67.420529-225.965451-225.230718-319.603085-320.914964C382.190539 364.238047 320.695976 221.414177 294.433846 160.412848zM485.433948 216.192246l-124.890428-85.036745c-7.886621-5.39487-14.851243-8.500605-19.114336-8.500605-1.666966 0-2.236947 0-2.236947 3.075035 0 2.212388 3.123131 11.227716 17.9887 41.6107l0.655939 2.084475c1.400906 5.594415 33.458019 61.135382 63.747883 111.998817L485.433948 216.192246zM773.942851 483.409217 545.443693 249.950094l-90.980107 92.954065 228.668003 227.450269L773.942851 483.409217zM729.688951 624.221266l51.65752 52.810786c2.588965 2.622734 8.804527 5.460362 15.20019 5.460362 5.249561 0 9.722432-1.842974 13.298887-5.460362l56.282864-57.487296c3.672646-3.789303 15.500019-19.766183 6.264681-29.223578L820.455187 537.310847 729.688951 624.221266z"  horiz-adv-x="1024" />

    
    <glyph glyph-name="control-arr" unicode="&#58892;" d="M533.238 110.923l-276.596 306.825h510.715l-234.119-306.825zM533.238 110.923z"  horiz-adv-x="1024" />

    
    <glyph glyph-name="shezhi" unicode="&#58893;" d="M931.748946 404.974843l-69.394487-40.402175c3.89061-21.214161 6.444782-42.891879 6.444782-65.253166s-2.554172-44.035936-6.444782-65.250096l69.394487-40.397059c28.343535-16.501836 38.056758-53.05024 21.688975-81.630159l-59.262732-103.507422c-16.364713-28.576849-52.611242-38.370913-80.957847-21.871123l-70.105684 40.814568c-32.756031-28.116361-69.989027-51.093678-111.37153-65.866127l0-50.720172c0-33.001625-26.535353-59.758012-59.265802-59.758012L453.944769-148.866101c-32.729425 0-59.262732 26.756387-59.262732 59.758012l0 50.720172c-41.385573 14.772448-78.618569 37.749766-111.3746 65.866127l-70.102614-40.814568c-28.349675-16.499789-64.593134-6.704702-80.957847 21.871123l-59.265802 103.507422c-16.364713 28.579919-6.65456 65.1273 21.692045 81.630159l69.391417 40.397059c-3.89061 21.211091-6.441713 42.888809-6.441713 65.250096s2.552126 44.039006 6.441713 65.256236l-69.391417 40.400129c-28.346605 16.499789-38.056758 53.04717-21.692045 81.627089l59.265802 103.504352c16.364713 28.585035 52.608172 38.377052 80.957847 21.874193l70.105684-40.809451c32.753985 28.116361 69.989027 51.090609 111.37153 65.863057l0 50.714032c0 33.004695 26.532283 59.761082 59.262732 59.761082l118.53058 0c32.729425 0 59.265802-26.756387 59.265802-59.761082l0-50.714032c41.382503-14.772448 78.615499-37.746696 111.37153-65.863057l70.105684 40.809451c28.346605 16.501836 64.593134 6.710842 80.957847-21.874193l59.262732-103.504352C969.805704 458.023036 960.092481 421.474632 931.748946 404.974843zM887.300618 482.598758l-29.633924 51.753711c-8.181333 14.291494-26.306132 19.188015-40.479947 10.939143l-82.329077-47.932686c-41.791825 47.53155-98.267071 81.633229-162.381297 94.756107l0 65.760726c0 16.499789-13.266142 29.873378-29.630854 29.873378l-59.265802 0c-16.367783 0-29.633924-13.373589-29.633924-29.873378l0-65.760726c-64.11525-13.122879-120.586402-47.224558-162.378228-94.756107l-82.332147 47.932686c-14.171768 8.249895-32.296567 3.352351-40.479947-10.939143L139.122571 482.598758c-8.184403-14.285355-3.325745-32.562627 10.846022-40.811498l82.663698-48.123021c-9.848299-29.727045-15.746636-61.276598-15.746636-94.343715s5.895267-64.6136 15.743566-94.337575l-82.660628-48.123021c-14.171768-8.249895-19.030425-26.524097-10.846022-40.814568l29.630854-51.747571c8.184403-14.294564 26.308179-19.191084 40.479947-10.936073l82.329077 47.926546c41.791825-47.52848 98.267071-81.627089 162.381297-94.753037l0-65.760726c0-16.499789 13.266142-29.879518 29.633924-29.879518l59.265802 0c16.364713 0 29.630854 13.379729 29.630854 29.879518l0 65.760726c64.11525 13.125949 120.592542 47.223534 162.381297 94.753037l82.329077-47.926546c14.174837-8.256034 32.299637-3.358491 40.479947 10.936073l29.633924 51.747571c8.181333 14.291494 3.325745 32.565696-10.846022 40.814568l-82.663698 48.123021c9.848299 29.723975 15.743566 61.270459 15.743566 94.337575s-5.895267 64.6136-15.743566 94.340645l82.663698 48.126091C890.62534 450.036132 895.480928 468.313404 887.300618 482.598758zM513.212618 149.929076c-81.829703 0-148.164504 66.884316-148.164504 149.390425 0 82.514295 66.334801 149.401682 148.164504 149.401682 81.824587 0 148.159388-66.887386 148.159388-149.401682C661.372006 216.813393 595.037205 149.929076 513.212618 149.929076zM513.212618 388.960101c-49.097208 0-88.899726-40.134069-88.899726-89.6406 0-49.503461 39.802518-89.63139 88.899726-89.63139 49.091068 0 88.893586 40.127929 88.893586 89.63139C602.106204 348.826032 562.304709 388.960101 513.212618 388.960101z"  horiz-adv-x="1024" />

    
    <glyph glyph-name="icon2fuzhi" unicode="&#58894;" d="M457.48899 362.019383c0.727571-0.971118 1.782599-1.782599 2.589988-2.594081 10.409071-12.95915 26.201755-21.461801 44.146453-21.461801 31.386848 0 56.861032 25.431206 56.861032 56.861032 0 16.685008-7.330966 31.586392-18.671245 41.955554-1.539053 1.61887-2.914376 3.321652-5.14416 4.940522L307.398624 616.599546c-6.643304 5.104251-16.280802 5.344728-23.328311 0-8.385994-6.479575-9.964956-18.467607-3.485381-26.810622L457.48899 362.019383zM510.581186 833.188442c-15.185864 0-27.497261-12.311397-27.497261-27.457352l0-177.547719c0-15.229866 12.311397-27.541263 27.497261-27.541263 15.189957 0 27.501354 12.311397 27.501354 27.541263L538.08254 777.21871c200.228277-14.657838 364.452549-187.593516 364.452549-390.739239 0-215.941144-175.685301-391.710356-391.626445-391.710356-216.065987 0-391.794267 175.84903-391.794267 391.953903 0 110.401436 46.77635 216.269625 128.34511 290.303782 11.256368 10.205433 12.06785 27.616988 1.862417 38.877449-10.209526 11.260461-27.581172 12.06785-38.841633 1.862417-93.024673-84.483136-146.404418-205.169823-146.404418-331.043648 0-246.480694 200.431915-446.952518 446.832791-446.952518 246.277056 0 446.62506 200.392006 446.62506 446.708971C957.534727 628.667396 752.853022 833.188442 510.581186 833.188442zM606.807784 53.980681c1.299599 0 2.63399 0.159636 3.969405 0.567935C755.971036 98.206952 857.381703 234.690416 857.381703 386.563382c0 7.611352-6.15621 13.766538-13.730723 13.766538-7.614421 0-13.770632-6.15621-13.770632-13.766538 0-139.805116-93.353155-265.516236-227.037876-305.692261-7.251148-2.106987-11.380188-9.801227-9.193383-17.08819C595.427596 57.870268 600.896144 53.980681 606.807784 53.980681zM510.784824 66.292078c-7.570419-0.404206-13.447267-6.80294-13.122879-14.418384 0.327458-7.370875 6.439666-13.122879 13.730723-13.122879 0.203638 0 0.448208 0 0.647753 0 15.150048 0.731664 30.335912 2.430352 45.157479 5.104251 7.450692 1.295506 12.435217 8.42181 11.096732 15.957437-1.335415 7.450692-8.381901 12.391215-15.957437 11.096732C538.730293 68.478883 524.760117 66.939831 510.784824 66.292078z"  horiz-adv-x="1024" />

    
    <glyph glyph-name="kaiqi" unicode="&#58895;" d="M834.061653 266.134187l-1.47456 0c5.229227 39.983787 1.47456 81.640107 1.47456 124.934827 0 246.411947-113.435307 400.46592-278.736213 430.861653L555.32544 890.794667l-67.191467 0L488.133973 821.930667c-165.317973-30.395733-278.7328-184.45312-278.7328-430.861653 0-43.29472-3.75808-84.95104 1.45408-124.934827l-1.45408 0-131.222187-187.395413 887.104853 0L834.061653 266.134187zM701.320533 167.97696 342.145707 167.97696 236.168533 167.97696l62.1568 97.846613c-0.423253 29.661867 0.314027 69.853867 0.314027 125.242027 0 275.98848 170.663253 347.60704 223.08864 348.023467 54.664533 0.433493 223.092053-72.034987 223.092053-348.023467 0-55.391573 0.72704-95.58016 0.31744-125.242027l62.149973-97.846613L701.320533 167.97696zM640.80896 16.27136c-21.9648-73.652907-68.573867-124.931413-122.9824-124.931413s-101.0176 51.275093-122.9824 124.931413L640.80896 16.27136z"  horiz-adv-x="1024" />

    
    <glyph glyph-name="guojishangouquanqiumorentai01" unicode="&#58896;" d="M717.925023 447.823608l-170.482813 42.111097 37.072337 114.621551 0.994654 6.211469c0.38681 9.638521-3.040243 18.688641-9.638521 25.542746-6.287193 6.51846-15.492856 10.276041-25.207102 10.276041-11.045567 0-21.427008-4.803399-27.332509-12.501732L303.270095 429.415352l-3.835352-4.728698c-6.622838-10.714016-7.009647-24.237007-0.975211-35.332716 5.678326-10.355859 16.21224-17.130146 27.689642-18.024515l170.105213-28.202319-73.202209-208.760604-0.89437-3.37691c-1.890047-10.331299 0.743944-20.86419 7.311523-28.739555 6.698562-7.999185 16.874319-12.783141 27.332509-12.783141l0.025583 0c11.607362 0 22.065552 5.522784 28.432563 14.855336L741.04151 391.831362l2.807952 3.885494c6.086625 10.788717 6.141884 23.702841 0.075725 34.568307C738.358401 440.154951 728.714763 446.596663 717.925023 447.823608L717.925023 447.823608zM493.391177 187.087235l55.121412 157.290349 0.925069 3.427052c1.890047 10.151197-0.819668 20.583804-7.366781 28.634154-6.081509 7.417947-14.725376 11.939937-24.086581 12.684904l-158.110017 26.181289 160.261007 148.953474-24.850991-76.856435-1.049912-6.134721c-0.356111-9.408277 2.939959-18.382673 9.381671-25.212218 5.623068-6.081509 13.241582-9.970072 21.015639-10.864442l162.662707-40.21798L493.391177 187.087235 493.391177 187.087235zM493.391177 187.087235M511.49244 831.854051c-246.857271 0-447.691345-200.835098-447.691345-447.691345s200.834074-447.696462 447.691345-447.696462 447.696462 200.840214 447.696462 447.696462S758.348688 831.854051 511.49244 831.854051L511.49244 831.854051zM511.49244-5.954363c-215.102033 0-390.111952 175.015036-390.111952 390.117069S296.390407 774.274658 511.49244 774.274658 901.608485 599.263715 901.608485 384.162706 726.59345-5.954363 511.49244-5.954363L511.49244-5.954363zM511.49244-5.954363"  horiz-adv-x="1024" />

    
    <glyph glyph-name="yonghu" unicode="&#58897;" d="M928.961972 44.255179c-5.54325 3.669576-106.467847 69.842695-256.573563 102.281501 55.067176 69.76697 90.413196 163.541727 105.438401 225.963405 20.838607 86.514399 12.751419 255.786641-70.360488 361.254717C658.874627 795.393651 590.892303 827.967534 510.873852 827.967534c-80.007195 0-147.991566-32.573883-196.581214-94.211708-83.131349-105.468077-91.201142-274.740318-70.373791-361.254717 15.027252-62.421678 50.380434-156.196435 105.443517-225.963405-150.10674-32.438806-251.034407-98.611925-256.57868-102.281501-20.292162-13.534248-29.338189-38.736233-22.265096-62.046125 7.055696-23.336498 28.585035-39.298028 52.974515-39.298028l774.770705 0c24.370037 0 45.916772 15.962553 52.970422 39.298028C958.304254 5.519969 949.254134 30.720931 928.961972 44.255179L928.961972 44.255179zM628.937804 180.814368l-9.057283-11.478426c-65.989947-75.761498-152.023392-75.761498-218.016409 0l-9.046027 11.478426c-77.072353 97.610108-115.308189 226.686882-98.850355 349.85611 15.103999 118.355595 82.95841 241.98224 216.905098 241.98224 133.944642 0 201.803145-123.626645 216.908168-241.98224C744.160035 407.450085 706.059276 278.450059 628.937804 180.814368L628.937804 180.814368zM123.493104-1.770064c3.798513 2.539846 97.573269 63.97915 237.573837 94.234221l68.741617 14.880919c24.515347-16.122189 51.446719-26.142403 81.065294-26.142403 29.613458 0 56.559157 10.020214 81.065294 26.142403l68.747757-14.880919c138.923026-30.004361 232.334509-90.778516 237.57793-94.234221L123.493104-1.770064 123.493104-1.770064z"  horiz-adv-x="1024" />

    
    <glyph glyph-name="remen" unicode="&#58898;" d="M350.211-42.278c-56.83 118.297-26.549 186.056 17.112 249.922 47.82 69.945 60.188 139.143 60.188 139.143s37.638-48.887 22.551-125.388c66.426 73.941 79.006 191.813 68.932 236.968 150.178-104.97 214.363-332.235 127.893-500.699 460.127 260.319 114.459 649.863 54.271 693.739 20.045-43.875 23.883-118.138-16.688-154.229C615.86 757.282 446.277 810.593 446.277 810.593c20.045-134.131-72.716-280.843-162.172-390.451-3.146 53.472-6.504 90.416-34.599 141.595-6.291-97.186-80.554-176.406-100.706-273.753-27.242-131.838 20.419-228.385 201.356-330.368L350.211-42.278z"  horiz-adv-x="1024" />

    
    <glyph glyph-name="arrows-copy" unicode="&#58899;" d="M533.931 156.412c-12.692-12.692-33.188-12.774-45.779-0.184l-413.771 413.772c-12.591 12.591-12.508 33.087 0.184 45.779v0c12.692 12.692 33.188 12.774 45.779 0.184l413.772-413.772c12.589-12.591 12.507-33.087-0.185-45.779v0zM947.852 614.737c12.692-12.692 12.774-33.188 0.184-45.779l-413.772-413.771c-12.591-12.591-33.087-12.508-45.779 0.184v0c-12.692 12.692-12.774 33.188-0.184 45.779l413.771 413.771c12.592 12.59 33.088 12.508 45.78-0.184v0z"  horiz-adv-x="1024" />

    
    <glyph glyph-name="lishidingdan" unicode="&#58901;" d="M204.79895 179.256043l0-51.08955L333.490953 128.166493c-0.64073 8.430518-0.968128 16.949279-0.968128 25.544775s0.32612 17.114257 0.968128 25.544775L204.79895 179.256043zM402.841935 358.070747 204.79895 358.070747l0-51.08955 165.156038 0C379.371538 325.046957 390.390552 342.14331 402.841935 358.070747zM511.337529 894.51358 358.068879 894.51358l0-51.08955 153.269929 0L511.338808 894.51358zM424.989949-76.192986 77.073796-76.192986c-14.108839 0-25.544775 11.435936-25.544775 25.544775L51.529021 817.879255c0 14.108839 11.435936 25.544775 25.544775 25.544775l122.516189 0c16.147408-5.512065 30.430178-19.371518 30.75374-51.08955 0.566553-55.838111 76.634325-51.08955 76.634325-51.08955L562.427079 741.24493c0 0 71.481632 0 76.634325 58.49311 2.3276 26.431054 15.482379 38.574222 30.25369 43.687269l123.016239 0c14.108839 0 25.544775-11.435936 25.544775-25.544775l0-369.515517c18.06576-9.41655 35.163392-20.436843 51.08955-32.888226L868.965658 843.42403c0 28.2164-22.87315 51.08955-51.08955 51.08955L664.607458 894.51358c0 0-76.634325 15.12045-76.634325-51.08955 0-35.078984-21.512399-47.325743-41.74206-51.08955L330.967681 792.33448c-22.050817 2.738128-49.534406 13.654829-49.534406 51.08955 0 62.50886-76.634325 51.092108-76.634325 51.092108l-0.002558-0.002558L51.529021 894.51358C23.312621 894.51358 0.439471 871.64043 0.439471 843.42403l0-919.617016c0-28.2164 22.87315-51.08955 51.08955-51.08955l436.054195 0C464.676814-112.821999 443.65935-95.646354 424.989949-76.192986zM664.607458 536.884172 204.79895 536.884172l0-51.08955 459.808508 0L664.607458 536.884172zM664.607458 434.705072c-155.188281 0-280.993804-125.805523-280.993804-280.993804s125.805523-280.993804 280.993804-280.993804 280.993804 125.805523 280.993804 280.993804S819.795739 434.705072 664.607458 434.705072zM817.877387 128.166493 639.062683 128.166493 639.062683 306.979918l51.08955 0 0-127.725154 127.725154 0L817.877387 128.166493z"  horiz-adv-x="1024" />

    
    <glyph glyph-name="biaoqian" unicode="&#58902;" d="M254.712391 329.629374 0 782.222222 2578.962963 782.222222 2578.962963-128 0-128 254.712391 329.629374ZM2465.185185 896 2578.962963 782.222222 2465.185185 782.222222 2465.185185 896Z"  horiz-adv-x="2579" />

    
    <glyph glyph-name="shouye" unicode="&#58903;" d="M251.963057-8.950603l0-52.119031L148.264277-61.069635 148.264277 347.518111 61.134871 347.518111l0 60.10082L501.119697 831.964568l456.952266-425.958368 0.144286-57.496505-88.189551 0-0.144286-409.951813-287.219537 0.539282 0.144286 51.952232 203.745381 0 0 415.288354 64.059991 0L500.684792 731.863732l-325.633429-326.066287L231.219617 405.797445l0-414.749072L251.963057-8.951627 251.963057-8.950603zM662.525784 127.920694l53.989635 0L716.515419 368.240061l-53.989635 0 0-0.040932L352.52745 368.199129l0 0.040932-54.030567 0 0-377.686968-0.041956 0 0-52.037167 152.622026 0 0 52.037167-98.550527 0L352.526427 316.122053l309.998333 0L662.52476 127.920694z"  horiz-adv-x="1024" />

    
    <glyph glyph-name="chanpinfenleihaidaoyou" unicode="&#58904;" d="M278.624 136.832c15.104 7.808 34.24 13.888 58.976 13.888 48.096 0 75.424-23.104 91.776-36.896 12.384-10.496 14.72-12.192 24.384-12.192 9.728 0 12.032 1.728 24.416 12.192 16.352 13.792 43.648 36.896 91.84 36.896 48.16 0 75.488-23.104 91.808-36.928 12.384-10.464 14.72-12.16 24.416-12.16 9.696 0 12.032 1.728 24.448 12.192 9.92 8.384 24.032 20.192 44.288 28.16l71.712 140.416c3.968 7.712 1.792 17.216-5.152 22.432l-110.976 83.552-108.032 81.312c-41.536 28.128-62.304 42.24-87.008 42.24-24.672 0-45.504-14.112-87.744-42.752l-107.264-80.768-111.04-83.552c-6.944-5.216-9.12-14.688-5.152-22.432L278.624 136.832zM554.848 441.6c3.584 5.472 10.912 6.976 16.384 3.36l19.776-13.216c5.44-3.648 6.912-11.008 3.296-16.48-2.24-3.456-6.016-5.312-9.856-5.312-2.24 0-4.48 0.608-6.528 1.984l-19.744 13.184C552.736 428.768 551.232 436.128 554.848 441.6zM440 431.744l19.776 13.216c5.44 3.648 12.736 2.112 16.384-3.328 3.584-5.472 2.112-12.832-3.296-16.48l-19.808-13.184c-1.984-1.376-4.256-1.984-6.528-1.984-3.808 0-7.552 1.888-9.856 5.312C433.088 420.736 434.592 428.096 440 431.744zM105.216 80.992c22.88 0 33.6-9.088 47.168-20.576 15.04-12.736 33.792-28.576 68.992-28.576 35.232 0 53.952 15.872 68.992 28.576 0.256 0.192 0.48 0.384 0.672 0.608 6.432 5.44 12.32 10.304 19.2 13.888 7.296 3.776 15.744 6.08 27.296 6.08 22.88 0 33.568-9.088 47.2-20.544 15.04-12.736 33.792-28.576 68.992-28.576 35.264 0 54.016 15.872 69.024 28.576 13.6 11.456 24.32 20.544 47.2 20.544 22.88 0 33.632-9.088 47.264-20.544 14.976-12.736 33.728-28.576 68.992-28.576 4.544 0 8.832 0.32 12.928 0.8 12.8 1.536 23.072 5.408 31.744 10.208 9.696 5.312 17.408 11.712 24.352 17.568 13.6 11.488 24.352 20.576 47.232 20.576s33.632-9.088 47.264-20.576c15.04-12.736 33.792-28.576 69.024-28.576 9.344 0 16.928 7.648 16.928 17.056 0 9.408-7.584 17.024-16.928 17.024-22.912 0-33.664 9.088-47.264 20.576-15.04 12.736-33.792 28.544-69.024 28.544-15.968 0-28.416-3.328-38.816-8.032-12.512-5.728-21.984-13.536-30.208-20.512-3.968-3.328-7.648-6.4-11.488-9.184-9.408-6.784-19.488-11.392-35.744-11.392-22.912 0-33.664 9.088-47.232 20.576-15.008 12.736-33.792 28.544-68.992 28.544-35.232 0-53.984-15.808-69.024-28.544-13.568-11.488-24.32-20.576-47.232-20.576-22.88 0-33.568 9.088-47.2 20.576-15.04 12.736-33.792 28.544-68.96 28.544-18.048 0-31.68-4.128-42.752-9.888-7.616-3.936-14.048-8.64-19.776-13.28-2.24-1.824-4.416-3.648-6.496-5.376-13.6-11.488-24.32-20.576-47.2-20.576-22.88 0-33.6 9.088-47.2 20.576-15.04 12.736-33.76 28.544-68.96 28.544-9.376 0-16.928-7.616-16.928-17.024C88.288 88.608 95.84 80.992 105.216 80.992zM918.784-13.568c-20.352 0-31.104 7.168-42.816 16.832-1.44 1.184-2.944 2.464-4.448 3.744-10.944 9.248-23.904 20.064-43.616 25.312-7.456 2.016-15.776 3.232-25.408 3.232-9.632 0-17.984-1.248-25.44-3.232-19.712-5.248-32.672-16.064-43.584-25.312-1.504-1.28-2.976-2.528-4.48-3.744-11.68-9.664-22.432-16.832-42.752-16.832-20.352 0-31.104 7.168-42.752 16.832-1.504 1.184-2.976 2.432-4.48 3.68-10.912 9.28-23.872 20.096-43.584 25.344-7.456 2.016-15.712 3.232-25.408 3.232-9.632 0-17.952-1.248-25.408-3.232-1.792-0.48-3.552-1.056-5.248-1.6-16.8-5.664-28.416-15.328-38.368-23.744-1.504-1.248-2.944-2.496-4.448-3.68-0.128-0.128-0.288-0.224-0.416-0.352-11.488-9.472-22.24-16.48-42.368-16.48-20.32 0-31.04 7.168-42.752 16.832-0.32 0.256-0.672 0.576-0.992 0.832-1.152 0.928-2.272 1.888-3.424 2.848-9.376 7.968-20.192 17.088-35.488 22.848-2.56 0.96-5.28 1.76-8.16 2.496-7.424 2.016-15.744 3.232-25.344 3.232-9.632 0-17.952-1.248-25.376-3.232-19.712-5.28-32.704-16.096-43.648-25.344-1.504-1.248-3.008-2.496-4.448-3.712-11.68-9.632-22.432-16.8-42.752-16.8-20.32 0-31.072 7.168-42.688 16.8-1.504 1.216-2.976 2.432-4.48 3.712-10.912 9.28-23.872 20.096-43.616 25.344-7.424 1.984-15.712 3.232-25.344 3.232-9.344 0-16.928-7.648-16.928-17.056 0-9.376 7.584-17.024 16.928-17.024 22.88 0 33.6-9.056 47.168-20.576 15.04-12.704 33.792-28.576 68.992-28.576 35.232 0 53.984 15.84 68.992 28.576 13.568 11.52 24.32 20.576 47.2 20.576 22.88 0 33.568-9.056 47.2-20.576 15.04-12.704 33.792-28.576 68.96-28.576 35.264 0 54.016 15.84 69.024 28.576 13.6 11.52 24.32 20.576 47.2 20.576 22.88 0 33.632-9.056 47.264-20.576 15.008-12.704 33.728-28.576 68.992-28.576 35.232 0 53.952 15.84 69.024 28.576 13.6 11.52 24.352 20.576 47.232 20.576s33.664-9.056 47.264-20.576c15.04-12.704 33.792-28.576 69.024-28.576 9.344 0 16.928 7.648 16.928 17.088C935.712-21.216 928.128-13.568 918.784-13.568zM414.08 488.544l0.48 0.352c44.512 30.176 69.024 46.784 100.928 46.784 31.904 0 56.16-16.448 100.192-46.304l0.48-0.32 0.48-0.352 91.008-68.48-19.072 214.048c0 32.544-25.408 59.008-56.672 59.008l-58.592 0L573.312 747.712c0 9.856-7.936 17.856-17.728 17.856-9.824 0-17.76-8-17.76-17.856l0-54.432-46.592 0L491.232 797.856c0 9.856-7.936 17.856-17.76 17.856-9.824 0-17.728-8-17.728-17.856l0-104.576-56.672 0c-31.296 0-56.672-26.464-56.672-59.008l-19.072-214.048 90.272 67.968L414.08 488.544zM577.76 635.456c0 4.544 3.648 8.224 8.16 8.224l54.496-11.872c4.544 0 8.192-3.68 8.192-8.256l0-20.16c0-4.544-3.648-8.256-8.192-8.256L585.92 595.136c-4.512 0-8.16 3.68-8.16 8.256L577.76 635.456zM480.064 635.456c0 4.544 3.68 8.224 8.224 8.224l54.496 0c4.512 0 8.192-3.68 8.192-8.224l0-32.032c0-4.544-3.68-8.256-8.192-8.256l-54.496 0c-4.512 0-8.224 3.68-8.224 8.256L480.064 635.456zM382.368 603.424l0 20.16c0 4.576 3.68 8.256 8.16 8.256l54.496 11.872c4.544 0 8.192-3.68 8.192-8.224l0-32.032c0-4.544-3.648-8.256-8.192-8.256l-54.496 0C386.048 595.168 382.368 598.848 382.368 603.424z"  horiz-adv-x="1024" />

    
    <glyph glyph-name="jiantou" unicode="&#58905;" d="M352.193341 799.804101 767.825526 384 352.193341-31.803078 288.748357 31.812799 640.765689 384.021489 288.748357 736.123756Z"  horiz-adv-x="1024" />

    
    <glyph glyph-name="iconfontbi" unicode="&#58906;" d="M303.521344 12.447166 128.54642 184.232229 18.487933-108.742897 303.521344 12.447166 303.521344 12.447166ZM865.176737 561.824377 684.537549 747.691516 160.957311 232.110872 348.697815 37.770437 865.176737 561.824377 865.176737 561.824377ZM1013.957917 703.839086C1047.932774 740.150153 995.730286 797.985887 995.730286 797.985887 995.730286 797.985887 966.14185 837.006863 911.13412 877.142295 856.083361 917.262696 813.722887 877.142295 813.722887 877.142295L720.614188 784.178663 909.722887 596.121264C909.722887 596.121264 989.45291 676.377097 1013.957917 703.839086L1013.957917 703.839086Z"  horiz-adv-x="1026" />

    
    <glyph glyph-name="mine-o" unicode="&#58907;" d="M511.706 776.72c53.578 0 103.949-20.864 141.834-58.75s58.75-88.256 58.75-141.834-20.864-103.949-58.75-141.834-88.256-58.75-141.834-58.75c-53.578 0-103.949 20.864-141.834 58.75s-58.75 88.256-58.75 141.834 20.864 103.948 58.75 141.834 88.256 58.75 141.834 58.75M511.706 831.979c-141.298 0-255.843-114.545-255.843-255.843s114.545-255.843 255.843-255.843 255.843 114.545 255.843 255.843-114.546 255.843-255.843 255.843v0zM898.913-54.768h-774.415l67.404 329.771 115.565 70.003 24.713-49.424-91.393-57.918-48.885-237.174h639.606l-48.884 237.174-91.394 57.918 24.714 49.424 115.564-70.003z"  horiz-adv-x="1024" />

    
    <glyph glyph-name="42" unicode="&#58908;" d="M870.4-128 153.6-128c-19.2 0-32 12.8-32 32L121.6 441.6c0 19.2 12.8 32 32 32l723.2 0c19.2 0 32-12.8 32-32l0-537.6C902.4-115.2 889.6-128 870.4-128zM185.6-64l659.2 0L844.8 409.6 185.6 409.6 185.6-64zM793.6 409.6c-19.2 0-32 12.8-32 32L761.6 582.4C761.6 723.2 646.4 832 512 832S262.4 723.2 262.4 582.4l0-140.8c0-19.2-12.8-32-32-32S198.4 422.4 198.4 441.6L198.4 582.4C198.4 755.2 339.2 896 512 896s313.6-140.8 313.6-313.6l0-140.8C825.6 422.4 812.8 409.6 793.6 409.6zM454.4 275.2c0-38.4 38.4-102.4 38.4-147.2 0-38.4-25.6-51.2-25.6-76.8 0-19.2 19.2-38.4 44.8-38.4 25.6 0 44.8 19.2 44.8 38.4 0 25.6-25.6 38.4-25.6 76.8 0 44.8 38.4 108.8 38.4 147.2 0 32-25.6 51.2-57.6 51.2S454.4 307.2 454.4 275.2z"  horiz-adv-x="1024" />

    
    <glyph glyph-name="map" unicode="&#58909;" d="M768 352C768 334.304 782.336 320 800 320 817.664 320 832 334.304 832 352L832 608C832 625.664 817.664 640 800 640 782.336 640 768 625.664 768 608L768 352 768 352ZM960 48 768 192 512 0 256 96 64-24 64 616 256 736 512 640 768 832 960 688 960 48 960 48ZM768 896 512 704 256 800 0 640 0-128 256 32 512-64 768 128 1024-64 1024 704 768 896 768 896ZM544 480C526.336 480 512 465.664 512 448L512 256C512 238.304 526.336 224 544 224 561.664 224 576 238.304 576 256L576 448C576 465.664 561.664 480 544 480L544 480ZM288 576C270.336 576 256 561.664 256 544L256 224C256 206.304 270.336 192 288 192 305.664 192 320 206.304 320 224L320 544C320 561.664 305.664 576 288 576L288 576Z"  horiz-adv-x="1024" />

    
    <glyph glyph-name="jingxuan-copy" unicode="&#58910;" d="M825.287 256.455c66.503 67.925 107.264 157.269 107.264 255.545 0 212.082-188.274 384-420.551 384-232.249 0-420.551-171.918-420.551-384 0-98.276 40.761-187.62 107.264-255.545-66.588-105.927-141.824-225.621-141.824-225.621l184.519-24.491 115.001-134.343c0 0 86.073 136.96 155.591 247.552 69.518-110.592 155.591-247.552 155.591-247.552l115.001 134.343 184.519 24.491c0 0-75.236 119.694-141.824 225.621zM339.314-31.687l-55.58 107.207-125.668-7.623c0 0 43.264 71.339 88.69 146.233 54.642-40.619 120.718-68.665 193.081-80.1-49.436-81.522-100.523-165.717-100.523-165.717zM161.536 512c0 176.725 156.9 320 350.436 320 193.564 0 350.436-143.275 350.436-320 0-176.725-156.9-320-350.436-320-193.508 0-350.436 143.275-350.436 320zM740.238 75.52l-55.58-107.207c0 0-51.058 84.196-100.523 165.717 72.363 11.463 138.439 39.481 193.081 80.1 45.426-74.923 88.69-146.233 88.69-146.233l-125.668 7.623zM512 736c-135.481 0-245.305-100.295-245.305-224s109.824-224 245.305-224 245.305 100.295 245.305 224c0 123.733-109.824 224-245.305 224zM512 352c-96.768 0-175.218 71.623-175.218 160s78.45 160 175.218 160c96.768 0 175.218-71.623 175.218-160s-78.45-160-175.218-160z"  horiz-adv-x="1024" />

    
    <glyph glyph-name="suo01" unicode="&#58912;" d="M804.680922 524.655484c0.692778 2.88777 1.143033 5.814426 1.143033 8.889461 0 164.408467-133.747143 298.157657-298.138214 298.157657-164.390048 0-298.138214-133.74919-298.138214-298.157657 0-3.074012 0.451278-6.000668 1.144056-8.889461-39.138392-23.5166-65.468061-66.272379-65.468061-115.161856l0-331.275939c0-74.112951 60.311621-134.422526 134.422526-134.422526l456.07734 0c74.112951 0 134.422526 60.309574 134.422526 134.422526L870.145913 409.493627C870.146936 458.383104 843.817268 501.138884 804.680922 524.655484zM507.684718 754.889145c118.53979 0 215.343533-93.746104 220.800825-210.972992L286.884916 543.916153C292.343231 661.143041 389.146974 754.889145 507.684718 754.889145zM793.33348 78.217688c0-31.767518-25.841551-57.610092-57.610092-57.610092l-456.07734 0c-31.767518 0-57.610092 25.841551-57.610092 57.610092L222.035956 409.493627c0 31.749098 25.841551 57.610092 57.610092 57.610092l456.07734 0c31.767518 0 57.610092-25.860994 57.610092-57.610092L793.33348 78.217688zM579.679425 279.833569c0 39.756469-32.238238 72.012104-71.994708 72.012104s-71.992661-32.255635-71.992661-72.012104c0-22.914896 10.915607-43.112913 27.604708-56.278771l-13.163811-125.140115c-0.282433-2.681062 0.580215-5.380544 2.400676-7.40669 1.837858-2.026146 4.424776-3.187599 7.143701-3.187599l96.016821 0c0.149403-0.019443 0.301875 0 0.376577 0 5.305843 0 9.601682 4.313236 9.601682 9.601682 0 1.27504-0.243547 2.512217-0.712221 3.63683l-12.902868 122.495892C568.764841 236.719632 579.679425 256.91765 579.679425 279.833569z"  horiz-adv-x="1024" />

    
    <glyph glyph-name="qinzi" unicode="&#58913;" d="M925.887145 457.848675c-1.038496 10.416138-5.595206 20.621219-12.630836 28.409338-0.837232 0.953753-1.69645 1.896914-2.596639 2.798103 1.388059 13.711504 0.75229 26.746266-0.19107 38.784304-2.744539 29.299935-8.381717 53.110791-12.238502 69.70534-4.058249 16.584156-6.993858 25.877655-6.993858 25.877655s2.235884-9.485369 5.425322-26.216425c3.221016-16.690084 7.247686-40.755768 9.197164-69.706339 0.550827-10.744515 0.868611-22.285291-0.33897-34.056909-1.378465 1.143625-2.765525 2.266263-4.133597 3.019553-2.204305 1.324102-3.793628 2.532683-6.484803 3.942727l-7.27067 3.189438c-2.564261 0.773276-5.287815 1.198188-7.925427 1.759407-2.734146 0.168885-5.574221 0.021985-8.329353-0.233042-5.405135-1.313709-10.862036-3.623743-14.539342-7.841483-7.873062-7.862469-10.585023-19.42423-8.095311-29.840368 0.307392-2.67019 1.906507-5.023394 2.945003-7.49292 1.547551-2.172727 3.20103-4.43899 5.202872-6.177612 2.25687-1.440623 4.080234-3.496829 6.793394-4.260511 2.479119-0.889797 5.298208-2.25687 7.417571-2.288249 9.113021-2.18332 21.204623 0.062957 27.679034 7.90544 6.072483 6.972673 8.710294 15.216083 10.342588 23.089945 4.811338-6.177612 7.989383-13.468069 8.859193-21.267581 1.059682-8.880179-0.498462-18.057157-3.453858-26.704294-2.936609-8.668123-7.280064-16.890548-12.409386-24.478004-5.012002-7.651412-10.777093-14.71962-16.912533-21.256988-24.637496-26.153468-53.577474-44.760452-79.836071-56.819676-13.193255-5.965555-25.591249-10.851443-36.897983-14.284315-5.584614-1.84435-10.988949-3.072917-15.905416-4.493553-5.002408-1.080667-9.600891-2.077392-13.744082-2.966988-8.382717-1.410044-14.973648-2.574654-19.520565-2.967988-4.524932-0.529841-6.950687-0.82664-6.950687-0.82664s2.426755 0.148899 6.984265 0.381941c4.576497 0.137507 11.25337 0.762683 19.741215 1.823364 4.21774 0.709319 8.890572 1.483594 13.976924 2.341812 5.001409 1.176203 10.511673 2.172727 16.276764 3.762249 11.582747 2.904031 24.383468 7.238093 37.926286 13.012777 26.926744 11.624718 57.35991 29.226385 83.153422 56.163721 6.421846 6.697859 12.514515 14.008502 17.866287 22.019871 5.468292 7.925427 10.193689 16.626127 13.499647 26.067526C925.093882 437.121528 927.021376 447.421144 925.887145 457.848675zM893.885642 459.724603c-5.298208-5.647771-13.245619-7.375599-21.722872-5.468292-7.820498 1.505379-14.688241 6.803787-16.255579 14.942069-1.84355 7.778526 0.444898 17.060433 6.368482 22.676625 2.701568 3.147466 6.623309 4.546917 10.438123 5.563628 2.034421 0.095535 4.090627 0.201463 6.146033 0.095535 2.066799-0.529841 4.154783-0.82664 6.221382-1.452016l6.028513-2.733147c1.611507-0.795261 3.975105-2.490711 5.91399-3.699292 2.224292-1.249553 3.623743-2.776118 5.38335-4.17457 0.593797-0.455291 1.134031-0.985132 1.69545-1.505379-0.169085-0.911782-0.233042-1.811971-0.41332-2.71316C902.002938 473.41612 899.161864 465.394159 893.885642 459.724603zM548.365904 427.404116c0-40.756367 33.039599-73.795966 73.795966-73.795966 40.756367 0 73.795966 33.039599 73.795966 73.795966s-33.039599 73.795966-73.795966 73.795966C581.405503 501.200082 548.365904 468.160483 548.365904 427.404116zM321.138164 603.480936c46.848237 0 84.805902 37.957665 84.805902 84.795509s-37.957665 84.806901-84.805902 84.806901c-46.827251 0-84.796508-37.969057-84.796508-84.806901S274.311913 603.480936 321.138164 603.480936zM758.108299 317.345935c-9.059658 15.535867-20.716754 5.171294-20.716754 5.171294s-66.028033-54.371936-165.72264-24.584132c-99.694607 29.776412-138.543068 170.904527-147.603525 194.196934-9.050064 23.312394-25.887049 38.847461-45.311279 34.958098-64.725916-5.181887-91.854123 4.059048-119.108245 15.54646-24.605917 10.353181-50.494165 56.957982-91.91708 27.179772C61.548166 472.716394 54.988614 344.622042 69.325493 330.295556c16.827591-16.827591 34.948705-3.87877 38.848461 15.534068 10.342588 41.433508 32.362458 90.624557 66.018439 124.290131-68.624672-221.398492 21.998885-440.196747 33.655981-459.609385 11.656297-19.42423 31.068935-10.363773 36.261215 2.586047-21.246595 201.185796 10.576429 273.296905 11.657096 275.744645-23.303001-146.299409 0-265.381871 0-265.381871s7.766934-20.726348 25.876656-19.434623c18.131507 1.303116 28.49528 16.838983 24.61651 33.666374-11.656297 217.515125 60.835753 346.987143 82.855624 385.824011 27.192164-91.927473 85.452263-122.996608 100.98813-142.432231-36.262214-141.116723-3.889163-209.731802 3.877771-244.685303 7.778326-34.959098 20.716754-37.544345 36.262214-38.836869 15.534068-1.292524 24.595524 18.120115 20.716754 33.655981-10.374966 63.438189 2.574654 103.578174 2.574654 121.699288 34.968691-67.321556 76.391806-122.991812 89.341427-141.112726 12.948821-18.131707 33.665575-19.412838 42.715639-14.242344 9.070051 5.171294 19.434623 16.827591 10.363573 33.655981-60.846346 85.447467-54.382329 163.132796-56.968575 203.262188C715.371674 246.135016 767.168756 301.810868 758.108299 317.345935zM950.387333 695.068639l0-0.010593c-5.234251 5.425322-11.804996 8.880179-18.311185 11.094878l-0.189871 0.07355-0.159492 0.021985-0.254028 0.07355 0.116521-0.031579-0.126914 0.031579c-7.30105 1.589522-15.323011 2.002842-23.058566-0.349363l0.021985 0.020986-0.021985 0c-3.835799-1.16561-7.449149-2.966988-10.671165-5.26583l-1.345088-1.007117c-2.66999-2.119363-4.96983-4.534526-6.994658-7.131165l0-0.010593c-4.630061-6.040105-7.692385-12.843892-9.768777-19.730623l0-0.010393-0.010393-0.021985c-0.773276-2.71316-1.345088-5.4567-1.875928-8.211832l-0.126914 0.126914c-3.432873 3.623743-7.311643 6.728438-11.360298 9.463384l-0.020986 0.020986 0 0c-4.090627 2.734146-8.487845 5.202872-13.267605 6.972673l0-0.010593c-4.768367 1.780393-9.897689 2.987974-15.247662 3.072917l0.009593 0c-5.319194 0.105928-10.755907-0.847625-15.757317-3.030945l0 0c-3.528408-1.483594-6.771409-3.49583-9.696426-5.837642-1.207581-0.94416-2.341812-1.939885-3.444465-2.978581-3.803221-3.622944-7.152151-8.032354-9.314485-13.181663-2.204305-5.129322-3.051131-10.829458-2.510698-16.361707l0 0c0.476477-5.520657 2.236684-10.712937 4.63106-15.344996 1.737422-3.326944 3.750857-6.378875 6.01812-9.21895 4.048655-5.128323 8.816223-9.536934 13.734488-13.447083l0-0.010593c7.735555-6.083076 16.212808-10.893414 24.859945-15.027012l0.041972-0.010393-0.031579 0.010393c17.367025-8.254803 35.902258-13.563604 54.731892-16.763634l0.021985 0 0.67774-0.137507 1.228567-0.180478 1.50458 1.313709c4.959438 4.280698 9.494962 8.901165 13.797445 13.606575 4.36564 4.725596 8.498438 9.67544 12.41898 14.79317 7.842483 10.172703 14.942069 21.066117 20.621219 32.871313l0 0c2.808696 5.933177 5.277422 12.122981 7.004251 18.703519 1.728028 6.581338 2.574654 13.659139 1.663072 20.92861l0 0c-0.464885 3.645728-1.419637 7.333628-3.062524 10.808472-1.134031 2.395176-2.553669 4.620467-4.184963 6.697859C951.976656 693.363595 951.193986 694.232406 950.387333 695.068639zM799.510228 659.209352l0 0.010393 0 0L799.510228 659.209352z"  horiz-adv-x="1024" />

    
    <glyph glyph-name="icon" unicode="&#58914;" d="M520.15 261.089c-79.145 0-153.552 30.821-209.516 86.784s-86.784 130.371-86.784 209.516 30.821 153.552 86.784 209.516 130.371 86.784 209.516 86.784 153.552-30.821 209.516-86.784c55.963-55.963 86.784-130.371 86.784-209.516s-30.821-153.552-86.784-209.516c-55.964-55.963-130.372-86.784-209.516-86.784zM520.15 795.475c-131.28 0-238.085-106.804-238.085-238.085s106.804-238.085 238.085-238.085c131.281 0 238.085 106.804 238.085 238.085s-106.804 238.085-238.085 238.085zM162.736-68.229c-31.147 0-59.643 3.33-79.987 25.306-17.301 18.689-23.54 45.58-19.636 84.63l0.164 1.329c3.44 23.45 23.431 66.374 148.542 191.199 66.958 66.805 133.634 126.369 134.3 126.962l38.755-43.441c-0.655-0.585-66.208-59.152-131.996-124.793-119.718-119.45-130.895-153.020-131.93-157.973-2.681-28.155 2.768-36.473 4.518-38.364 6.909-7.461 33.195-6.864 56.393-6.343l3.495 0.079 1.283-58.201-3.46-0.078c-6.898-0.157-13.734-0.311-20.442-0.311zM891.056-68.229c-6.709 0-13.54 0.155-20.441 0.31l-3.461 0.078 1.283 58.201 3.495-0.079c23.189-0.519 49.481-1.12 56.393 6.343 1.75 1.891 7.2 10.21 4.518 38.365-1.036 4.957-12.224 38.557-132.092 158.139-65.786 65.628-131.179 124.045-131.833 124.627l38.754 43.441c0.665-0.594 67.342-60.156 134.3-126.961 125.11-124.826 145.103-167.749 148.542-191.199l0.164-1.329c3.905-39.051-2.335-65.942-19.636-84.63-20.343-21.972-48.843-25.306-79.988-25.306z"  horiz-adv-x="1024" />

    
    <glyph glyph-name="icon5" unicode="&#58915;" d="M140.340817 326.794114c48.033993-19.234063 93.224218-16.502859 136.345318 11.735275 20.674878-15.753799 43.780109-25.360598 69.802786-27.77253 26.940582-2.496867 52.635801 1.746784 76.370365 14.758122 7.606235 4.169973 12.441357 4.532223 20.005636-0.959861 44.273343-32.126698 110.154819-31.213909 154.431232 1.206478 3.802606 2.784416 6.701632 5.796006 12.752442 2.567475 51.197032-27.325345 100.967576-24.874527 148.859329 8.449439 0.751107 0.522909 1.577938 0.942465 2.823302 1.681292 19.978007-13.452383 42.045605-21.946848 66.442248-23.561625 23.832801-1.579985 46.948265 1.766226 69.606311 12.388145 4.119831-26.867928 8.022721-52.218292 11.890818-77.57582 8.960069-58.760289 17.888416-117.526717 26.849508-176.284959 5.731538-37.559431 11.652388-75.088162 17.172101-112.678292 2.068102-14.105253-4.327562-20.868283-19.407002-20.965497-29.780257-0.190335-59.565631-0.092098-89.349981-0.110517-66.932412-0.051165-133.86994-0.105401-200.803375-0.137123-23.14207-0.01228-30.851659 5.567809-38.544875 27.488051-23.818475 67.864644-47.558156 135.76101-71.767534 203.488531-1.845021 5.158487-6.277984 10.918677-11.032264 13.160741-7.867178 3.706415-14.607696-1.367137-18.282389-11.789511-11.797697-33.484625-23.458271-67.0153-35.228339-100.509135-12.68388-36.094056-25.393343-72.174809-38.162158-108.238167-5.994528-16.930601-14.913665-23.542182-32.966832-23.549346-97.945753-0.044002-195.893552 0.034792-293.839305 0.187265-16.253172 0.025583-22.055318 7.375991-19.621896 23.280216 12.236696 79.953983 24.348548 159.926386 36.558637 239.885486C127.483998 243.806028 133.839753 284.654364 140.340817 326.794114zM933.521824 508.100436c0-32.850176 3.338025-65.444525-0.874927-97.036034-4.839215-36.284391-32.018228-55.884798-66.166979-64.786539-34.183544-8.915044-65.548902-2.00568-93.583398 19.71911-11.082406 8.590656-14.007015 8.338922-24.554232-1.131777-35.755342-32.107255-90.718141-35.606962-130.348744-8.29492-15.263635 10.521634-15.988136 10.476609-29.718859-1.835811-38.172391-34.21015-101.034091-33.923624-139.075499 0.636496-12.629645 11.474332-14.008039 11.558244-28.308743 1.738597-40.906665-28.087709-94.933139-24.64326-131.751696 8.401344-9.665127 8.674567-12.954033 8.715499-23.924899 0.496304-36.646642-27.453259-75.847455-31.18628-116.585275-10.79281-26.363438 13.19451-43.403532 34.558074-44.654013 64.937988-1.196245 29.045523-0.257873 58.181097-0.257873 87.949075C380.526131 508.100436 657.048025 508.100436 933.521824 508.100436zM115.526665 541.861354c21.276582 11.497868 42.526559 23.043832 63.833841 34.483372 100.975762 54.219879 201.932082 108.481713 303.038828 162.458045 6.674003 3.563152 8.853645 7.640004 8.714476 14.998599-0.411369 21.790282-0.403183 43.608194 0.182149 65.396429 0.3776 14.119579 11.07422 24.63098 25.025976 26.190499 12.635785 1.412163 25.308409-6.557346 29.230742-19.048845 1.344624-4.281513 1.551332-9.045003 1.590218-13.5936 0.165776-19.345604 0.479931-38.706557-0.119727-58.033741-0.251733-8.099469 2.182712-12.384052 9.564843-16.327874 118.92967-63.541175 237.662865-127.446647 356.433922-191.285604 3.217275-1.729387 6.347568-3.625574 11.830443-6.773264-271.326569 0-540.101012 0-808.873408 0C115.826494 540.840094 115.677091 541.350724 115.526665 541.861354z"  horiz-adv-x="1024" />

    
    <glyph glyph-name="gongyuzhuzhai" unicode="&#58916;" d="M824.572689 47.39827 825.393801 474.4441 858.122906 474.4441C877.066254 474.4441 880.238971 483.667797 865.429787 494.878938L513.223274 761.513229C505.757358 767.165224 493.845613 766.896583 486.428669 760.756768L152.904894 484.662665C138.418017 472.67029 142.256084 462.615276 161.052836 462.213243L193.857117 461.511608 195.24274 46.704572 136.533333 46.704572 137.251805-12.365223 882.666264-13.00937 881.999111 45.812678 824.572689 47.39827ZM259.950594 418.434471 355.50734 417.344379 355.50734 336.578243 259.950594 336.97464 259.950594 418.434471 259.950594 418.434471ZM355.558659 174.833835 260.053233 175.180681 260.053233 256.541416 355.558659 255.649519 355.558659 174.833835 355.558659 174.833835ZM456.022822 578.020369 551.579566 576.930274 551.579566 496.164137 456.022822 496.510986 456.022822 578.020369 456.022822 578.020369ZM456.022822 418.434471 551.476927 417.344379 551.476927 336.578243 456.022822 337.024188 456.022822 418.434471 456.022822 418.434471ZM551.682205 59.296679 456.022822 59.891275 456.022822 256.541416 551.682205 256.541416 551.682205 59.296679ZM647.321856 418.434471 742.724642 417.344379 742.724642 336.578243 647.321856 337.024188 647.321856 418.434471 647.321856 418.434471ZM647.321856 256.590964 742.92992 255.69907 742.92992 174.833835 647.321856 175.180681 647.321856 256.590964 647.321856 256.590964Z"  horiz-adv-x="1024" />

    
    <glyph glyph-name="weixin" unicode="&#58924;" d="M709.778148 540.433168c28.660234 0 48.265341 19.608547 48.265341 48.265341 0 28.660234-18.85338 47.513614-48.265341 47.513614-28.655073 0-57.310146-18.85338-57.310146-47.513614C652.468002 560.041715 681.124795 540.433168 709.778148 540.433168L709.778148 540.433168 709.778148 540.433168zM709.778148 540.433168M441.313587 636.212122c-28.660234 0-58.070474-18.85338-58.070474-47.513614 0-28.655073 29.411961-48.265341 58.070474-48.265341 28.655073 0 47.508453 19.608547 47.508453 48.265341C489.573767 617.357022 469.96866 636.212122 441.313587 636.212122L441.313587 636.212122 441.313587 636.212122zM441.313587 636.212122M1282.915737 234.261847c0 151.573606-140.268459 280.533477-312.962666 294.107566l0 6.034458C935.26526 695.029163 761.815885 816.444241 565.740734 816.444241c-220.204381 0-400.439941-153.839108-400.439941-343.128074 0-101.808252 52.034296-193.056202 150.070152-265.449053l-33.937804-103.316866c-2.258621-6.787905 0-14.332697 5.281011-18.85682 3.017229-3.012068 7.543072-4.520683 11.312028-4.520683 3.015509 0 5.27585 0.753447 7.541352 1.508614l128.95299 65.604946 15.836151-3.012068c39.970542-8.29996 73.906625-15.084424 116.137508-15.084424 12.063755 0 24.887838 0.751727 36.949872 1.508614 5.281011 0.751727 9.049966 3.015509 12.067195 6.782744 45.999839-116.132348 174.204542-199.842387 324.276414-199.842387 38.456767 0 77.670421 9.051687 112.359952 18.098213l98.794463-54.294638c2.258621-1.508614 5.27585-2.260341 8.293079-2.260341 3.767236 0 7.541352 1.506894 11.310308 3.767236 5.281011 4.525843 7.543072 12.067195 6.034458 18.85338l-25.637844 84.461766C1236.159011 73.633114 1282.915737 154.320763 1282.915737 234.261847L1282.915737 234.261847 1282.915737 234.261847zM600.430265 166.387959c-11.312028-0.753447-22.622336-1.508614-33.934364-1.508614-38.461927 0-70.889397 6.786185-108.596156 14.329257l-21.868889 4.522403c-3.768956 0.758608-7.543072 0-11.312028-1.506894l-96.528961-48.265341 24.886117 75.41696c2.265502 7.537912 0 15.079264-6.784464 19.603387-96.528961 67.873888-145.546029 150.070152-145.546029 244.335331 0 170.437307 163.640801 308.440263 364.993522 308.440263 178.732106 0 336.338449-108.597877 368.767639-252.633571-187.025185-2.260341-337.845343-133.478833-337.845343-294.861013 0-23.377503 3.768956-46.004999 9.801693-67.873888L600.430265 166.386238 600.430265 166.387959 600.430265 166.387959zM1120.77667 27.628115c-6.034458-4.525843-8.293079-12.062035-6.034458-18.85166l16.593039-55.051525-67.870448 36.953313c-2.263782 1.508614-5.281011 2.258621-8.298239 2.258621-1.508614 0-3.015509 0-4.524123-0.751727-36.198145-9.051687-73.903185-18.85338-110.851337-18.85338-170.437307 0-308.441984 116.884075-308.441984 260.92837 0 144.035694 138.004677 260.171482 308.441984 260.171482 166.65803 0 307.678215-119.151297 307.678215-260.171482C1248.226206 162.620723 1202.978094 88.712377 1120.77667 27.628115L1120.77667 27.628115 1120.77667 27.628115zM1120.77667 27.628115M834.210456 358.690714c-18.85338 0-38.460207-19.606827-38.460207-38.458487 0-19.606827 18.85166-38.461927 38.460207-38.461927 28.655073 0 47.508453 18.8551 47.508453 38.461927C882.475796 339.083887 862.865529 358.690714 834.210456 358.690714L834.210456 358.690714 834.210456 358.690714zM834.210456 358.690714M1044.614864 358.690714c-18.85338 0-37.71192-19.606827-37.71192-38.458487 0-19.606827 18.858541-38.461927 37.71192-38.461927 28.653353 0 48.26018 18.8551 48.26018 38.461927C1092.873323 339.083887 1074.019944 358.690714 1044.614864 358.690714L1044.614864 358.690714 1044.614864 358.690714zM1044.614864 358.690714"  horiz-adv-x="1449" />

    
    <glyph glyph-name="jishiqi" unicode="&#58917;" d="M894.226355 610.309282 773.60516 729.725022c-11.700483 11.582803-30.749328 11.487635-42.333154-0.212848l0 0c-11.582803-11.700483-11.487635-30.749328 0.212848-42.333154l34.186613-33.844829-50.13791-40.316218C658.297994 659.655154 586.962296 689.647235 508.901429 695.602877l0 80.718393 85.356017 0c16.463973 0 29.933753 13.470803 29.933753 29.933753l0 0c0 16.463973-13.470803 29.933753-29.933753 29.933753L363.677906 836.188776c-16.463973 0-29.933753-13.470803-29.933753-29.933753l0 0c0-16.463973 13.470803-29.933753 29.933753-29.933753l85.356017 0 0-80.910774c-191.415564-15.801894-341.839529-176.156022-341.839529-371.649462 0-1.094938 0.011256-2.186805 0.020466-3.279696-0.007163-0.271176-0.020466-0.541329-0.020466-0.814552l0 0c0-0.554632 0.01842-1.104147 0.048095-1.650593 3.070942-203.316615 168.839383-367.190917 372.886639-367.190917 205.965955 0 372.934734 166.968779 372.934734 372.934734 0 94.965885-35.496445 181.640943-93.944626 247.482511l49.370431 39.699164 43.614333-43.178405c11.700483-11.582803 30.749328-11.487635 42.333154 0.212848l0 0C906.022005 579.676611 905.925814 598.726479 894.226355 610.309282zM508.901429 10.863674 508.901429 115.534596c0 16.463973-13.470803 29.933753-29.933753 29.933753l0 0c-16.463973 0-29.933753-13.470803-29.933753-29.933753l0-104.465237C301.301254 25.583934 183.613878 142.403546 167.746492 289.734056l98.886171 0c16.463973 0 29.933753 13.470803 29.933753 29.933753l0 0c0 16.463973-13.470803 29.933753-29.933753 29.933753l-99.660814 0c12.307304 151.172001 131.60434 272.069489 282.062074 286.851147l0-98.572016c0-16.463973 13.470803-29.933753 29.933753-29.933753l0 0c16.463973 0 29.933753 13.470803 29.933753 29.933753L508.901429 636.66044c151.550625-13.760398 272.016277-135.110187 284.386002-287.057855L686.655855 349.602585c-16.463973 0-29.933753-13.470803-29.933753-29.933753l0 0c0-16.463973 13.470803-29.933753 29.933753-29.933753l105.856933 0C776.561491 141.632997 657.719826 24.376433 508.901429 10.863674zM518.468318 384c-71.755254 50.351781-102.237499-34.397415-102.237499-34.397415l-90.619904-197.162452 170.868599 116.179023C496.479515 268.619156 595.146699 330.193537 518.468318 384z"  horiz-adv-x="1024" />

    
    <glyph glyph-name="b" unicode="&#58918;" d="M818.445474 441.990737 811.223579 443.392C963.637895 537.276632 972.907789 692.277895 900.473263 789.396211 850.997895 855.255579 779.317895 884.143158 702.032842 892.011789 849.812211 859.674947 869.322105 740.136421 861.453474 630.837895 849.92 825.936842 715.722105 879.400421 632.939789 893.736421 525.150316 889.317053 416.498526 854.177684 348.483368 827.661474L348.483368 832.512 161.468632 881.340632 32.121263-2.533053 425.876211-127.676632 408.198737-58.260211C915.671579-102.238316 993.172211 92.645053 995.004632 223.501474 998.022737 449.428211 818.445474 441.990737 818.445474 441.990737L818.445474 441.990737ZM610.196211 605.291789C642.533053 480.256 447.110737 473.141895 372.304842 474.866526L361.525895 631.376842C440.966737 667.594105 581.847579 714.805895 610.196211 605.291789L610.196211 605.291789ZM293.726316 397.904842 327.141053 620.382316 329.943579 431.535158C329.943579 431.535158 494.214737 411.055158 580.661895 477.992421 492.813474 384.970105 303.858526 397.581474 293.726316 397.797053L293.726316 397.904842ZM391.383579 101.807158 371.119158 208.842105C371.119158 208.842105 608.256 331.829895 613.968842 220.267789 619.358316 112.693895 434.822737 102.561684 391.383579 101.699368L391.383579 101.807158Z"  horiz-adv-x="1024" />

    
    <glyph glyph-name="b1" unicode="&#58919;" d="M891.705806 481.445161C890.962581 471.287742 903.514839 466.663226 909.543226 459.643871 945.630968 417.775484 970.157419 342.544516 967.349677 267.396129 958.183226 50.869677 768.082581-34.60129 543.215484-33.858065 549.574194-65.156129 558.658065-93.729032 565.016774-124.696774 394.24-70.193548 225.445161-13.708387 53.677419 39.803871 95.95871 324.541935 133.698065 613.821935 178.539355 896 233.868387 878.905806 301.419355 863.793548 364.84129 846.451613 387.220645 840.340645 390.276129 838.193548 414.389677 846.451613 497.620909 875.820954 585.955164 887.958486 674.023226 882.126452 808.464516 871.803871 917.80129 769.32129 927.710968 640 932.665806 571.375484 918.131613 531.489032 891.705806 481.445161L891.705806 481.445161ZM844.139355 665.765161C839.267097 709.450323 809.538065 751.814194 784.68129 773.12 754.496508 796.595773 718.981511 812.254142 681.290323 818.704516 667.334194 820.851613 663.122581 821.76 673.032258 816.722581 685.171613 810.776774 697.806452 809.620645 714.322581 798.885161 758.99871 770.890323 789.553548 712.092903 779.726452 630.420645 774.193548 683.437419 758.750968 727.865806 728.196129 761.228387 703.421935 788.645161 649.992258 819.943226 605.316129 822.668387 567.411613 824.980645 526.616774 813.419355 490.694194 805.16129 456.383225 796.672536 422.626638 786.082234 389.615484 773.450323 344.526452 789.966452 293.243871 799.95871 244.934194 813.089032 211.021075 587.588817 177.988817 361.538065 145.837419 134.936774 247.246452 104.216774 346.83871 71.68 447.091613 39.803871 443.458065 57.971613 436.851613 72.836129 435.2 93.316129 642.312258 76.304516 870.895484 100.170323 883.117419 297.455484 889.063226 392.91871 843.065806 477.811613 744.381935 477.811613 799.050323 518.276129 855.452903 565.099355 844.139355 665.765161L844.139355 665.765161ZM406.131613 501.264516C404.48 541.894194 401.424516 581.12 397.873548 620.180645 437.429677 640.082581 530.002581 676.005161 572.283871 634.054194 593.176774 613.16129 600.856774 567.989677 576.247742 540.903226 543.050323 504.154839 476.985806 504.154839 406.131613 501.264516L406.131613 501.264516ZM421.987097 215.865806C415.628387 241.87871 411.169032 269.708387 406.131613 297.125161 442.88 312.072258 491.354839 341.470968 540.903226 342.709677 569.393548 343.370323 590.451613 332.469677 592.433548 307.034839 598.709677 235.354839 495.31871 218.83871 421.987097 215.865806L421.987097 215.865806ZM556.75871 497.300645C518.028387 456.010323 435.778065 439.494194 346.673548 441.806452 353.940645 496.64 363.189677 549.16129 370.456774 604.325161 373.677419 561.300645 373.181935 514.56 374.420645 469.553548 440.237419 458.983226 516.129032 470.131613 556.75871 497.300645L556.75871 497.300645Z"  horiz-adv-x="1024" />

    
    <glyph glyph-name="dingdan" unicode="&#58920;" d="M271.98343 127.784268l255.784268 0 0 51.157108L271.98343 178.941376 271.98343 127.784268zM271.98343 306.83351l460.412701 0 0 51.157108L271.98343 357.990618 271.98343 306.83351zM578.924806 895.138344 425.453481 895.138344l0-51.157108 153.471325 0L578.924806 895.138344zM271.98343 485.882752l460.412701 0 0 51.157108L271.98343 537.03986 271.98343 485.882752zM885.866182 895.138344 732.394857 895.138344c0 0-76.735025 4.608255-76.735025-51.157108 0-35.124407-21.540439-47.388455-41.79663-51.157108L398.317396 792.824128c-22.079364 2.740491-49.59894 13.671878-49.59894 51.157108 0 62.767567-76.735025 51.159656-76.735025 51.159656l-0.002548-0.002548L118.512105 895.138344C90.2574 895.138344 67.354997 872.235941 67.354997 843.981236l0-920.825402C67.354997-105.096323 90.2574-128 118.512105-128l511.569809 0 51.157108 0 25.577917 0 230.20635 230.20635 0 25.577917 0 51.157108L937.02329 843.981236C937.02329 872.235941 914.119614 895.138344 885.866182 895.138344zM681.237749-76.842892 681.237749 102.20635c0 14.126716 11.451201 25.577917 25.577917 25.577917l179.049242 0L681.237749-76.842892zM885.866182 178.941376 681.237749 178.941376c-28.253431 0-51.157108-22.902403-51.157108-51.157108l0-204.627159L144.090022-76.842892c-14.126716 0-25.577917 11.451201-25.577917 25.577917L118.512105 818.403319c0 14.126716 11.451201 25.577917 25.577917 25.577917l122.677429 0c16.169025-5.519204 30.470286-19.396205 30.793896-51.157108 0.568228-55.91188 76.735025-51.157108 76.735025-51.157108l255.784268 0c0 0 76.735025-0.226782 76.735025 58.569557 0 29.143996 19.128654 40.089397 38.285336 43.74466l115.184715 0c14.126716 0 25.577917-11.451201 25.577917-25.577917L885.863634 178.941376z"  horiz-adv-x="1024" />

    
    <glyph glyph-name="kefu" unicode="&#58921;" d="M512 896c-237.999201 0-443.88334-178.013584-443.88334-408.904515l0-300.286057c0-77.11706 26.847783-142.676788 102.430683-142.676788l170.700759-1.789852L341.248102 418.007191 136.437875 419.081103 136.437875 487.146624c0 179.803436 185.530963 340.5833 375.562125 340.5833 191.105074 0 375.562125-160.831003 375.562125-340.5833l0-68.065521-204.861366-1.073911 0-375.562125c0 0 173.717938 0 204.70795 0-0.715941-64.588094-37.893728-104.629644-102.277267-102.430683-35.848182 1.227327-134.341191-0.255693-204.861366 0C564.161406-59.985617 512-57.63324 512-92.100679c0-36.6664 68.270076-36.206153 68.270076-36.206153l239.021974 2.147823c75.582901 0 136.59129 87.805034 136.59129 164.922093L955.88334 487.146624C955.88334 717.986416 749.999201 896 512 896zM272.978026 349.685977l0-239.021974c0 0-68.270076 0-68.628046 0-33.904914 0-67.912105 35.336796-67.912105 68.270076 0 57.63324 0 170.700759 0 170.700759L272.978026 349.634838zM887.562125 178.985218c0-34.160607-31.143428-68.270076-68.270076-68.270076-40.297243 0-68.270076 0-68.270076 0l0 239.021974 136.59129 0C887.562125 349.685977 887.562125 213.145825 887.562125 178.985218z"  horiz-adv-x="1024" />

    
    <glyph glyph-name="yanjingbi" unicode="&#58922;" d="M932.569601 600.168682c-22.512241 12.995703-51.368842 5.321075-64.364545-17.191166C795.654242 457.625262 660.683122 379.753373 516.093135 379.753373c-144.589987 0-279.561107 77.87189-352.009593 203.224143-12.995703 22.512241-41.852303 30.186869-64.364545 17.191166-22.512241-12.995703-30.186869-41.852303-17.191166-64.364545 43.387229-75.006695 104.886579-136.199061 177.130409-179.279304l-28.037973-46.45708c-13.507345-22.307585-6.344359-51.266513 15.963226-64.773858 7.674628-4.604777 16.065554-6.753672 24.354152-6.753672 15.963226 0 31.517138 8.083941 40.419706 22.716898l32.949735 54.438693c39.601079-14.4283 81.248726-23.944839 123.817328-28.037973L469.124413 224.316578c0-25.991406 21.079644-47.173379 47.173379-47.173379s47.173379 21.079644 47.173379 47.173379l0 63.341261c41.852303 3.990806 82.783651 13.302688 121.77076 27.321675l32.438093-53.722394c8.902568-14.632957 24.45648-22.716898 40.419706-22.716898 8.288598 0 16.679524 2.148896 24.354152 6.753672 22.307585 13.507345 29.470571 42.466274 15.963226 64.773858l-27.321675 45.331468c73.062456 43.182572 135.278105 104.784251 178.972319 180.404917C962.75647 558.316379 955.081843 587.172979 932.569601 600.168682z"  horiz-adv-x="1024" />

    
    <glyph glyph-name="rmb" unicode="&#58923;" d="M758.91 722.564l-182.978-311.294h144.179v-68.778h-167.988v-94.785h167.988v-69.651h-167.988v-138.008h-86.417v138.008l-174.158-0v69.651h174.158v94.785h-174.158v68.778h148.603l-181.232 311.294h97.434c84.671-154.623 136.082-252.659 154.322-294.107h1.776c6.17 17.037 23.087 51.441 50.718 103.183l103.604 190.924 92.136 0z"  horiz-adv-x="1024" />

    


  </font>
</defs>
</svg>
